<?xml version="1.0" encoding="utf-8"?>
<!-- Generator: Adobe Illustrator 16.0.0, SVG Export Plug-In . SVG Version: 6.00 Build 0)  -->
<!DOCTYPE svg PUBLIC "-//W3C//DTD SVG 1.1//EN" "http://www.w3.org/Graphics/SVG/1.1/DTD/svg11.dtd">
<svg version="1.1" id="Capa_1" xmlns="http://www.w3.org/2000/svg" xmlns:xlink="http://www.w3.org/1999/xlink" x="0px" y="0px"
	 width="16px" height="16px" viewBox="0 0 16 16" enable-background="new 0 0 16 16" xml:space="preserve">
<path fill="#5A8CA4" d="M14.981,2.272c-0.054-0.19-0.217-0.332-0.415-0.361L1.583,0.004c-0.002,0-0.004,0.001-0.006,0
	C1.509-0.004,1.439-0.001,1.371,0.017C1.362,0.02,1.356,0.026,1.348,0.028c-0.02,0.006-0.034,0.018-0.053,0.026
	C1.242,0.08,1.194,0.109,1.154,0.149c-0.009,0.008-0.021,0.01-0.029,0.019c-0.01,0.01-0.011,0.024-0.019,0.035
	C1.073,0.247,1.049,0.294,1.032,0.346c-0.007,0.021-0.016,0.04-0.021,0.061C0.997,0.48,0.995,0.556,1.016,0.633l2.865,10.124
	c0.001,0.004,0.005,0.006,0.006,0.01l1.379,4.867C5.328,15.855,5.533,16,5.756,16c0.045,0,0.092-0.006,0.137-0.018
	c0.271-0.074,0.43-0.35,0.355-0.616l-1.294-4.567l9.862-8.008C14.97,2.666,15.035,2.462,14.981,2.272z"/>
</svg>
