<?xml version="1.0" encoding="utf-8"?>
<!-- Generator: Adobe Illustrator 16.0.0, SVG Export Plug-In . SVG Version: 6.00 Build 0)  -->
<!DOCTYPE svg PUBLIC "-//W3C//DTD SVG 1.1//EN" "http://www.w3.org/Graphics/SVG/1.1/DTD/svg11.dtd">
<svg version="1.1" id="Capa_1" xmlns="http://www.w3.org/2000/svg" xmlns:xlink="http://www.w3.org/1999/xlink" x="0px" y="0px"
	 width="16px" height="16px" viewBox="0 0 16 16" enable-background="new 0 0 16 16" xml:space="preserve">
<g>
	<polygon fill="#5A8CA4" points="8.5,2.88 2.006,9.373 6.626,13.994 13.118,7.5 12.39,6.773 7.121,12.04 6.26,11.178 11.527,5.909 
		10.34,4.722 5.073,9.989 4.21,9.13 9.48,3.861 	"/>
	<path fill="#5A8CA4" d="M15.321,4.437l-3.758-3.757c-0.238-0.239-0.623-0.239-0.862,0L9.36,2.02l4.62,4.622l1.341-1.343
		C15.56,5.059,15.56,4.673,15.321,4.437z"/>
	<path fill="#5A8CA4" d="M1.146,10.235l-0.121,0.12c-0.102,0.102-0.164,0.234-0.177,0.38l-0.347,4.104
		c-0.015,0.18,0.049,0.356,0.176,0.482C0.793,15.437,0.949,15.5,1.109,15.5c0.016,0,0.033-0.001,0.051-0.002l4.104-0.345
		c0.146-0.011,0.278-0.073,0.381-0.176l0.123-0.122L1.146,10.235z"/>
</g>
</svg>
