<?xml version="1.0" encoding="utf-8"?>
<!-- Generator: Adobe Illustrator 16.0.0, SVG Export Plug-In . SVG Version: 6.00 Build 0)  -->
<!DOCTYPE svg PUBLIC "-//W3C//DTD SVG 1.1//EN" "http://www.w3.org/Graphics/SVG/1.1/DTD/svg11.dtd">
<svg version="1.1" id="Capa_1" xmlns="http://www.w3.org/2000/svg" xmlns:xlink="http://www.w3.org/1999/xlink" x="0px" y="0px"
	 width="16px" height="16px" viewBox="0 0 16 16" enable-background="new 0 0 16 16" xml:space="preserve">
<path fill="#5A8CA4" d="M14,3.172c-1.29-1.29-3.004-2-4.828-2c-0.552,0-1,0.447-1,1c0,0.552,0.448,1,1,1
	c1.29,0,2.502,0.502,3.414,1.414S14,6.711,14,8.001s-0.502,2.502-1.414,3.413c-0.912,0.912-2.125,1.414-3.415,1.414c0,0,0,0-0.001,0
	c-1.29,0-2.502-0.502-3.414-1.415C4.382,10.04,4.008,8.052,4.65,6.33l1.212,2.131c0.184,0.324,0.522,0.506,0.87,0.506
	c0.167,0,0.337-0.042,0.494-0.131c0.48-0.272,0.647-0.883,0.375-1.363L5.522,3.818C5.25,3.339,4.64,3.173,4.16,3.443L0.506,5.518
	C0.026,5.79-0.142,6.401,0.13,6.881C0.403,7.362,1.014,7.53,1.494,7.257l0.969-0.55c-0.418,2.157,0.218,4.459,1.88,6.121
	c1.29,1.29,3.004,2,4.828,2c0,0,0.001,0,0.001,0c1.824,0,3.539-0.71,4.828-2c1.289-1.288,2-3.003,2-4.827
	C16,6.177,15.29,4.462,14,3.172z"/>
</svg>
