<?xml version="1.0" encoding="utf-8"?>
<!-- Generator: Adobe Illustrator 16.0.0, SVG Export Plug-In . SVG Version: 6.00 Build 0)  -->
<!DOCTYPE svg PUBLIC "-//W3C//DTD SVG 1.1//EN" "http://www.w3.org/Graphics/SVG/1.1/DTD/svg11.dtd">
<svg version="1.1" id="Capa_1" xmlns="http://www.w3.org/2000/svg" xmlns:xlink="http://www.w3.org/1999/xlink" x="0px" y="0px"
	 width="172px" height="60px" viewBox="0 0 172 60" enable-background="new 0 0 172 60" xml:space="preserve">
<g>
	<g>
		<path fill="#FFFFFF" d="M22.256,22.771c-2.415,0-4.046,2.4-4.046,5.519c0,1.152,0.214,2.187,0.594,3.022
			c0.071-0.091,0.146-0.128,0.248-0.13c0.178-0.025,0.312,0.146,0.292,0.363c-0.007,0.158-0.087,0.303-0.202,0.353
			c0.709,1.095,1.788,1.749,3.146,1.749c2.6,0,4.323-2.319,4.323-5.395C26.611,25.171,24.888,22.771,22.256,22.771 M19.248,27.663
			c-0.174,0.008-0.315-0.216-0.307-0.492c0.011-0.281,0.168-0.512,0.343-0.537c0.183-0.004,0.318,0.232,0.309,0.495
			C19.583,27.409,19.423,27.659,19.248,27.663 M23.374,31.664c-0.22,0.025-0.383-0.137-0.372-0.353
			c0.023-0.221,0.211-0.422,0.42-0.429c0.225-0.015,0.388,0.151,0.36,0.353C23.766,31.47,23.582,31.652,23.374,31.664
			 M23.658,27.404c-0.227,0.009-0.393-0.19-0.373-0.483c0.027-0.26,0.211-0.507,0.438-0.519c0.204-0.008,0.369,0.206,0.357,0.485
			C24.068,27.165,23.879,27.395,23.658,27.404"/>
		<path fill="#FFFFFF" d="M57.583,30.878c0.133-0.12,0.217-0.171,0.219-0.141c0.302-1.066,0.033-2.256-0.81-3.116l-6.414-6.396
			c-0.1,0.048-0.214,0.107-0.345,0.124c-0.323,0.02-0.575-0.177-0.562-0.444c0.007-0.151,0.097-0.294,0.214-0.379l-6.959-6.954
			c-0.093,0.207-0.274,0.354-0.5,0.354c-0.328-0.007-0.592-0.329-0.596-0.731c-0.003-0.226,0.073-0.407,0.187-0.54l-2.934-2.938
			c-0.193-0.05-0.345-0.216-0.437-0.433l-6.929-6.931c-1.246-1.236-3.258-1.236-4.504,0L1.942,27.622
			c-1.256,1.254-1.256,3.267,0,4.522l7.686,7.686c0.002-0.002,0.003-0.002,0.005-0.002c0.059,0,0.112,0.041,0.132,0.13
			l14.512,14.514c0.002,0,0.004,0,0.005,0c0.229-0.025,0.384-0.004,0.373,0.069c-0.008,0.054-0.081,0.089-0.178,0.128l2.737,2.743
			c1.246,1.235,3.258,1.235,4.504,0l5.627-5.623c-0.114,0.045-0.244,0.109-0.396,0.154c-0.29,0.093-0.521,0.101-0.502,0.027
			c0.035-0.062,0.285-0.189,0.588-0.284c0.234-0.064,0.411-0.088,0.48-0.068l3.148-3.15c-0.031,0.009-0.078,0.018-0.122,0.027
			c-0.305,0.124-0.553,0.151-0.536,0.116c0.009-0.053,0.275-0.158,0.589-0.275c0.094-0.025,0.194-0.043,0.26-0.064l3.56-3.562
			c-0.1,0.051-0.266,0.109-0.452,0.168c-0.317,0.119-0.579,0.188-0.573,0.17c0.003-0.018,0.269-0.113,0.588-0.225
			c0.207-0.064,0.386-0.132,0.486-0.16l12.529-12.52c0.388-0.408,0.66-0.869,0.801-1.365c-0.034,0.091-0.141,0.248-0.281,0.373
			c-0.157,0.131-0.274,0.199-0.257,0.112C57.271,31.196,57.426,31.027,57.583,30.878 M55.339,26.536
			c0.259-0.086,0.443-0.01,0.424,0.145c-0.018,0.163-0.246,0.364-0.501,0.432c-0.265,0.092-0.474,0.006-0.452-0.158
			C54.836,26.789,55.078,26.588,55.339,26.536 M53.706,26.947c0.283-0.063,0.493,0.008,0.472,0.173
			c-0.024,0.167-0.26,0.373-0.552,0.438c-0.287,0.066-0.51-0.004-0.494-0.174C53.155,27.215,53.421,27.016,53.706,26.947
			 M52.188,23.808c0.302-0.047,0.528,0.1,0.512,0.316c-0.019,0.221-0.274,0.432-0.581,0.471c-0.314,0.06-0.553-0.076-0.525-0.301
			C51.608,24.075,51.878,23.868,52.188,23.808 M51.818,27.375c0.306-0.065,0.532,0.018,0.506,0.188
			c-0.022,0.172-0.28,0.355-0.585,0.439c-0.306,0.061-0.546-0.016-0.524-0.208C51.234,27.622,51.514,27.436,51.818,27.375
			 M50.045,24.108c0.319-0.033,0.559,0.117,0.545,0.322c-0.031,0.242-0.296,0.457-0.616,0.492c-0.325,0.047-0.577-0.086-0.543-0.331
			C49.443,24.384,49.721,24.158,50.045,24.108 M49.675,27.784c0.319-0.053,0.553,0.047,0.536,0.223
			c-0.021,0.188-0.285,0.373-0.606,0.433c-0.325,0.063-0.573-0.04-0.553-0.216C49.067,28.046,49.358,27.862,49.675,27.784
			 M49.195,31.359c0.312-0.085,0.551-0.032,0.528,0.111c-0.02,0.123-0.285,0.293-0.604,0.381c-0.321,0.071-0.569,0.02-0.554-0.125
			C48.601,31.595,48.873,31.427,49.195,31.359 M47.887,20.535c0.324-0.014,0.58,0.193,0.563,0.462
			c-0.009,0.27-0.294,0.525-0.618,0.561c-0.33,0.018-0.59-0.189-0.562-0.473C47.279,20.803,47.556,20.564,47.887,20.535
			 M47.646,24.409c0.326-0.027,0.571,0.125,0.553,0.344c-0.022,0.246-0.3,0.466-0.628,0.496c-0.33,0.045-0.581-0.113-0.562-0.344
			C47.033,24.676,47.315,24.456,47.646,24.409 M47.283,28.209c0.328-0.05,0.561,0.037,0.54,0.23
			c-0.019,0.178-0.293,0.382-0.62,0.437c-0.328,0.054-0.579-0.049-0.56-0.228C46.66,28.449,46.954,28.25,47.283,28.209
			 M46.806,31.876c0.322-0.064,0.567-0.007,0.541,0.139c-0.021,0.133-0.293,0.299-0.62,0.362c-0.328,0.065-0.581,0.009-0.564-0.124
			C46.183,32.105,46.476,31.937,46.806,31.876 M45.34,16.641c0.325-0.002,0.585,0.275,0.581,0.61
			c-0.009,0.334-0.27,0.614-0.598,0.622c-0.332,0.003-0.596-0.266-0.591-0.603C44.735,16.934,45.008,16.655,45.34,16.641
			 M42.426,16.691c0.326-0.001,0.582,0.265,0.578,0.614s-0.268,0.635-0.593,0.64c-0.328,0.006-0.586-0.26-0.581-0.615
			C41.834,16.985,42.097,16.695,42.426,16.691 M39.244,12.406c0.307,0.013,0.574,0.344,0.581,0.736
			c0.008,0.416-0.244,0.731-0.562,0.731c-0.322-0.004-0.578-0.337-0.583-0.749C38.678,12.724,38.926,12.4,39.244,12.406
			 M35.846,13.833c-0.31-0.002-0.56-0.351-0.562-0.767c-0.006-0.429,0.237-0.761,0.541-0.756c0.291,0.008,0.54,0.357,0.544,0.783
			C36.373,13.501,36.145,13.833,35.846,13.833 M36.368,17.438c-0.004,0.365-0.253,0.672-0.543,0.673
			c-0.303,0.007-0.548-0.285-0.542-0.66c0.003-0.359,0.253-0.67,0.562-0.674C36.145,16.774,36.372,17.081,36.368,17.438
			 M35.671,7.894c0.289,0.022,0.55,0.407,0.578,0.87c0.019,0.456-0.214,0.829-0.515,0.809c-0.295-0.017-0.552-0.414-0.571-0.866
			C35.145,8.233,35.365,7.878,35.671,7.894 M35.156,29.82c0.29-0.044,0.521,0.09,0.501,0.299c-0.031,0.213-0.285,0.414-0.585,0.436
			c-0.293,0.042-0.526-0.107-0.505-0.316C34.594,30.043,34.854,29.857,35.156,29.82 M34.911,26.091
			c0.026-0.25,0.283-0.481,0.586-0.512c0.291-0.016,0.526,0.168,0.507,0.433c-0.015,0.254-0.281,0.492-0.573,0.525
			C35.121,26.553,34.896,26.374,34.911,26.091 M34.71,33.873c0.306-0.027,0.521,0.051,0.499,0.207
			c-0.012,0.143-0.265,0.303-0.557,0.344c-0.3,0.051-0.534-0.051-0.52-0.208C34.163,34.059,34.409,33.917,34.71,33.873
			 M34.202,37.733c0.298-0.049,0.514,0.002,0.502,0.108c-0.01,0.106-0.26,0.224-0.552,0.272c-0.297,0.045-0.532-0.002-0.52-0.109
			C33.66,37.899,33.903,37.786,34.202,37.733 M34.132,41.387c-0.008,0.059-0.251,0.137-0.535,0.194
			c-0.3,0.056-0.528,0.044-0.521-0.021c0.011-0.055,0.264-0.144,0.55-0.2C33.913,41.322,34.151,41.33,34.132,41.387 M33.526,44.708
			c-0.005,0.02-0.242,0.082-0.523,0.125c-0.294,0.062-0.53,0.092-0.519,0.068c0.007-0.021,0.234-0.072,0.529-0.129
			C33.294,44.719,33.528,44.683,33.526,44.708 M32.007,22.572c-0.287,0.008-0.497-0.24-0.479-0.559
			c0.01-0.328,0.249-0.604,0.521-0.613c0.287-0.009,0.494,0.234,0.485,0.557C32.519,22.271,32.282,22.56,32.007,22.572
			 M32.29,26.314c-0.014,0.26-0.254,0.509-0.54,0.522c-0.277,0.03-0.492-0.172-0.465-0.444c0.013-0.272,0.257-0.501,0.537-0.514
			C32.092,25.85,32.304,26.051,32.29,26.314 M31.641,17.521c0.015-0.384,0.24-0.695,0.527-0.697
			c0.275-0.002,0.499,0.295,0.493,0.675c-0.009,0.385-0.247,0.699-0.523,0.707C31.866,18.209,31.639,17.912,31.641,17.521
			 M32.169,13.788c-0.287-0.001-0.514-0.349-0.528-0.785c-0.005-0.427,0.225-0.775,0.496-0.769c0.276,0.006,0.515,0.365,0.524,0.791
			C32.669,13.449,32.444,13.79,32.169,13.788 M32.057,9.408c-0.272-0.017-0.516-0.419-0.529-0.893
			c-0.021-0.468,0.184-0.85,0.468-0.837c0.277,0.017,0.521,0.422,0.539,0.886C32.548,9.046,32.343,9.426,32.057,9.408 M31.721,3.252
			c0.285,0.03,0.528,0.45,0.57,0.958c0.038,0.516-0.165,0.908-0.439,0.894c-0.29-0.028-0.54-0.457-0.566-0.964
			C31.246,3.63,31.449,3.234,31.721,3.252 M28.228,13.759c-0.252-0.006-0.464-0.369-0.47-0.814
			c-0.006-0.453,0.202-0.808,0.454-0.804c0.25,0.01,0.458,0.371,0.466,0.814C28.687,13.398,28.478,13.763,28.228,13.759
			 M28.678,17.579c-0.008,0.373-0.215,0.691-0.464,0.699c-0.253,0.002-0.466-0.303-0.456-0.689c0.005-0.397,0.217-0.715,0.469-0.715
			C28.477,16.874,28.686,17.183,28.678,17.579 M28.132,9.246c-0.251-0.017-0.479-0.425-0.493-0.911
			c-0.027-0.485,0.168-0.863,0.42-0.855c0.25,0.009,0.474,0.416,0.493,0.904C28.565,8.861,28.384,9.26,28.132,9.246 M27.803,2.955
			c0.251,0.021,0.476,0.449,0.51,0.961c0.042,0.529-0.14,0.926-0.399,0.913c-0.241-0.012-0.479-0.453-0.51-0.975
			C27.379,3.333,27.553,2.927,27.803,2.955 M24.043,13.707c-0.223-0.004-0.399-0.372-0.414-0.83
			c-0.011-0.444,0.166-0.817,0.391-0.812c0.218,0,0.396,0.377,0.4,0.829C24.422,13.341,24.253,13.707,24.043,13.707 M24.42,17.627
			c-0.005,0.412-0.182,0.744-0.399,0.744c-0.226,0.005-0.398-0.322-0.392-0.724c0.015-0.396,0.19-0.725,0.413-0.727
			C24.252,16.918,24.422,17.245,24.42,17.627 M23.877,7.29c0.21,0.007,0.401,0.407,0.432,0.904c0.013,0.497-0.15,0.905-0.377,0.895
			c-0.204-0.009-0.394-0.432-0.416-0.931C23.492,7.66,23.654,7.275,23.877,7.29 M19.578,11.972c0.176,0.001,0.334,0.393,0.336,0.849
			c0.005,0.469-0.145,0.848-0.32,0.846c-0.178,0-0.332-0.383-0.336-0.857C19.253,12.347,19.396,11.969,19.578,11.972 M19.593,16.951
			c0.176-0.001,0.325,0.331,0.321,0.753c-0.004,0.402-0.159,0.736-0.335,0.739c-0.184-0.002-0.325-0.329-0.321-0.731
			C19.262,17.288,19.416,16.951,19.593,16.951 M14.893,16.997c0.134,0,0.235,0.347,0.231,0.768c-0.004,0.418-0.12,0.767-0.245,0.769
			c-0.137,0.002-0.253-0.336-0.25-0.765C14.633,17.349,14.763,16.997,14.893,16.997 M4.878,27.456
			c-0.003-0.277,0.011-0.506,0.05-0.509c0.034,0,0.054,0.231,0.054,0.511c0.005,0.281-0.01,0.517-0.044,0.517
			C4.918,27.974,4.879,27.739,4.878,27.456 M4.997,32.304c-0.019,0-0.036-0.193-0.041-0.41C4.94,31.69,4.97,31.515,4.989,31.515
			c0.019,0,0.052,0.176,0.053,0.379C5.045,32.112,5.026,32.304,4.997,32.304 M9.686,36.37c-0.069,0-0.138-0.123-0.137-0.285
			c0.004-0.162,0.073-0.281,0.144-0.285c0.089,0,0.132,0.121,0.131,0.283C9.821,36.244,9.774,36.37,9.686,36.37 M9.748,32.306
			c-0.091,0-0.134-0.184-0.133-0.41c0.003-0.203,0.059-0.379,0.149-0.379c0.062,0,0.141,0.174,0.139,0.377
			C9.901,32.111,9.818,32.302,9.748,32.306 M9.805,27.985c-0.072,0.004-0.153-0.244-0.149-0.525
			c0.002-0.279,0.087-0.512,0.159-0.512c0.092-0.002,0.151,0.23,0.149,0.509C9.96,27.739,9.897,27.987,9.805,27.985 M9.861,23.407
			c-0.074,0.002-0.144-0.283-0.133-0.644c0.004-0.348,0.069-0.635,0.152-0.635c0.085,0.002,0.146,0.285,0.143,0.633
			C10.021,23.121,9.955,23.405,9.861,23.407 M13.913,43.668c-0.128,0.003-0.219-0.027-0.217-0.095
			c0.002-0.066,0.098-0.104,0.232-0.113c0.12-0.005,0.203,0.034,0.2,0.09C14.126,43.621,14.029,43.665,13.913,43.668 M14.097,40.087
			c-0.137,0.002-0.23-0.079-0.226-0.188c0.013-0.104,0.102-0.204,0.239-0.207c0.122-0.004,0.218,0.089,0.209,0.186
			C14.312,39.995,14.22,40.073,14.097,40.087 M14.271,36.25c-0.14,0.004-0.224-0.114-0.218-0.275
			c0.005-0.161,0.111-0.291,0.236-0.295c0.139-0.004,0.231,0.12,0.218,0.282C14.503,36.124,14.396,36.246,14.271,36.25
			 M17.879,46.776c-0.163,0.01-0.289,0.004-0.288-0.018c0.002-0.021,0.129-0.05,0.292-0.059c0.163-0.014,0.292-0.01,0.292,0.009
			C18.172,46.731,18.042,46.761,17.879,46.776 M21.501,49.563c-0.201,0.032-0.356,0.034-0.355,0.014
			c0.011-0.022,0.165-0.049,0.361-0.074c0.206-0.016,0.356-0.025,0.355-0.014C21.86,49.51,21.698,49.545,21.501,49.563
			 M21.912,46.421c-0.199,0.021-0.361,0.021-0.359,0.001c0.005-0.023,0.167-0.054,0.365-0.084c0.195-0.015,0.354-0.016,0.351-0.002
			C22.268,46.358,22.103,46.395,21.912,46.421 M21.89,44.782c-2.387,0-4.704-0.306-6.98-1.159l0.345-3.889
			c2.174,1.158,4.284,1.626,6.253,1.626c3.066,0,5.184-1.721,5.184-5.504c0-0.581,0-1.184,0.056-1.811H26.69
			c-1.056,1.786-2.865,3.163-5.617,3.163c-4.573,0-7.566-3.501-7.566-8.667c0-2.023,0.425-3.81,1.184-5.278
			c-0.092-0.068-0.163-0.304-0.158-0.582c0.018-0.366,0.126-0.65,0.26-0.651c0.145-0.002,0.252,0.275,0.232,0.633
			c0,0.017-0.001,0.024-0.001,0.034c1.352-2.13,3.538-3.427,6.314-3.427c2.729,0,4.491,1.328,5.554,3.202h0.071
			c-0.071-1.077-0.071-1.898-0.071-2.781h4.224v10.669c0.096-0.093,0.231-0.148,0.374-0.16c0.27-0.031,0.479,0.12,0.465,0.332
			c-0.018,0.195-0.255,0.396-0.541,0.415c-0.117,0.028-0.216-0.007-0.298-0.052v3.442c0.255-0.027,0.437,0.055,0.424,0.209
			c-0.012,0.143-0.195,0.279-0.424,0.324v0.986c0,0.838-0.075,1.646-0.229,2.386c0.119,0.022,0.175,0.078,0.169,0.121
			c-0.007,0.07-0.098,0.143-0.23,0.188C29.96,42.322,27.112,44.782,21.89,44.782 M18.16,39.673c0.016-0.108,0.154-0.202,0.326-0.214
			c0.167-0.011,0.294,0.062,0.289,0.18c-0.006,0.098-0.157,0.199-0.325,0.207C18.281,39.854,18.155,39.784,18.16,39.673
			 M22.32,39.351c0.007-0.108,0.183-0.194,0.4-0.224c0.202-0.012,0.363,0.051,0.356,0.16c-0.009,0.103-0.183,0.212-0.403,0.224
			C22.466,39.526,22.303,39.459,22.32,39.351 M29.561,42.111c0.008-0.061,0.237-0.129,0.501-0.173
			c0.281-0.047,0.484-0.028,0.479,0.039c-0.009,0.041-0.239,0.13-0.5,0.173C29.76,42.179,29.555,42.167,29.561,42.111
			 M29.973,45.325c-0.003,0.013-0.218,0.073-0.476,0.111c-0.269,0.047-0.477,0.056-0.474,0.043c0.004-0.013,0.212-0.064,0.488-0.111
			C29.764,45.325,29.975,45.312,29.973,45.325 M24.758,52.048c-0.211,0.041-0.386,0.024-0.378-0.02
			c0.013-0.056,0.193-0.108,0.424-0.149c0.225-0.031,0.398-0.014,0.389,0.031C25.181,51.956,24.989,52.017,24.758,52.048
			 M25.286,49.114c-0.224,0.023-0.405,0.031-0.401,0.02c0.003-0.012,0.186-0.057,0.421-0.088c0.229-0.037,0.415-0.053,0.411-0.033
			C25.713,49.03,25.524,49.079,25.286,49.114 M25.786,45.972c-0.228,0.022-0.417,0.027-0.412,0.015
			c0.002-0.014,0.192-0.054,0.431-0.088c0.235-0.026,0.422-0.044,0.42-0.024C26.223,45.896,26.031,45.945,25.786,45.972
			 M27.521,56.317c-0.034,0.1-0.252,0.204-0.48,0.256c-0.241,0.041-0.421,0.013-0.396-0.086c0.029-0.081,0.244-0.197,0.487-0.234
			C27.372,56.197,27.546,56.239,27.521,56.317 M27.681,54.154c-0.257,0.046-0.442,0.034-0.426-0.039
			c0.015-0.075,0.234-0.164,0.481-0.205c0.247-0.048,0.441-0.035,0.415,0.039C28.137,54.022,27.913,54.109,27.681,54.154
			 M28.305,51.48c-0.252,0.053-0.447,0.052-0.438-0.004c0.013-0.033,0.213-0.122,0.48-0.165c0.244-0.034,0.447-0.03,0.438,0.003
			C28.764,51.37,28.558,51.449,28.305,51.48 M28.456,48.607c0.004-0.02,0.213-0.073,0.468-0.118c0.266-0.03,0.467-0.053,0.465-0.033
			c-0.002,0.012-0.207,0.054-0.48,0.101C28.651,48.604,28.445,48.626,28.456,48.607 M30.015,57.735
			c-0.046,0.101-0.282,0.23-0.537,0.288c-0.253,0.071-0.429,0.04-0.398-0.073c0.045-0.097,0.286-0.219,0.542-0.292
			C29.876,57.6,30.048,57.622,30.015,57.735 M30.749,55.616c-0.028,0.088-0.257,0.211-0.525,0.277
			c-0.26,0.058-0.454,0.039-0.425-0.048c0.031-0.089,0.263-0.223,0.535-0.271C30.588,55.516,30.785,55.529,30.749,55.616
			 M30.957,53.49c-0.268,0.059-0.482,0.052-0.45-0.021c0.016-0.061,0.245-0.174,0.525-0.222c0.265-0.065,0.474-0.055,0.441,0.019
			C31.46,53.324,31.222,53.441,30.957,53.49 M31.673,50.834c-0.287,0.069-0.495,0.074-0.484,0.023
			c0.012-0.049,0.235-0.135,0.521-0.189c0.276-0.053,0.492-0.055,0.481-0.022C32.18,50.702,31.946,50.787,31.673,50.834
			 M31.85,47.993c0.008-0.01,0.229-0.068,0.52-0.125c0.281-0.056,0.505-0.076,0.501-0.064c-0.002,0.012-0.238,0.081-0.512,0.134
			C32.067,47.987,31.848,48.012,31.85,47.993 M33.803,54.822c-0.023,0.099-0.273,0.232-0.562,0.301
			c-0.279,0.081-0.485,0.071-0.451-0.014c0.037-0.089,0.285-0.217,0.573-0.309C33.635,54.742,33.847,54.746,33.803,54.822
			 M34.049,52.754c-0.279,0.069-0.505,0.07-0.484,0.01c0.02-0.07,0.283-0.187,0.564-0.27c0.296-0.059,0.502-0.07,0.483-0.014
			C34.582,52.562,34.344,52.67,34.049,52.754 M34.841,50.125c-0.301,0.066-0.522,0.089-0.511,0.035
			c0.009-0.035,0.252-0.134,0.548-0.202c0.303-0.074,0.52-0.1,0.507-0.048C35.373,49.958,35.125,50.05,34.841,50.125 M35.59,47.249
			c-0.307,0.062-0.548,0.1-0.546,0.08c0.004-0.012,0.252-0.07,0.56-0.154c0.294-0.049,0.539-0.107,0.523-0.085
			C36.123,47.108,35.883,47.169,35.59,47.249 M36.282,44.177c-0.295,0.07-0.552,0.117-0.55,0.094
			c0.003-0.012,0.266-0.094,0.561-0.145c0.311-0.074,0.557-0.117,0.552-0.097C36.841,44.05,36.593,44.121,36.282,44.177
			 M36.93,40.98c-0.315,0.046-0.56,0.045-0.549,0.004c0.012-0.065,0.279-0.153,0.591-0.213c0.3-0.076,0.543-0.079,0.534-0.016
			C37.493,40.822,37.229,40.915,36.93,40.98 M36.983,37.466c0.014-0.106,0.28-0.229,0.584-0.282
			c0.314-0.049,0.547-0.012,0.536,0.085c-0.014,0.097-0.274,0.231-0.586,0.272C37.199,37.604,36.955,37.567,36.983,37.466
			 M37.805,49.336c-0.309,0.095-0.548,0.126-0.538,0.078c0.012-0.05,0.269-0.148,0.584-0.243c0.305-0.085,0.536-0.117,0.521-0.068
			C38.358,49.143,38.104,49.264,37.805,49.336 M38.604,46.493c-0.305,0.092-0.568,0.145-0.562,0.133
			c0.007-0.022,0.272-0.109,0.574-0.182c0.315-0.09,0.563-0.138,0.561-0.125C39.17,46.33,38.918,46.419,38.604,46.493 M39.35,43.489
			c-0.322,0.068-0.578,0.122-0.574,0.109c0.005-0.023,0.271-0.098,0.584-0.169c0.32-0.087,0.57-0.123,0.565-0.11
			C39.923,43.332,39.667,43.407,39.35,43.489 M40.022,40.33c-0.319,0.064-0.562,0.072-0.551,0.018
			c0.008-0.055,0.277-0.161,0.598-0.225c0.311-0.08,0.567-0.094,0.557-0.03C40.603,40.158,40.345,40.256,40.022,40.33
			 M41.399,45.708c-0.317,0.102-0.573,0.159-0.569,0.137c0.003-0.014,0.263-0.104,0.585-0.193c0.315-0.093,0.564-0.164,0.562-0.152
			C41.971,45.515,41.708,45.618,41.399,45.708 M42.177,42.749c-0.325,0.089-0.585,0.144-0.581,0.131
			c0.004-0.026,0.274-0.1,0.596-0.198c0.32-0.075,0.572-0.146,0.566-0.127C42.756,42.577,42.501,42.664,42.177,42.749
			 M42.887,39.658c-0.325,0.072-0.581,0.097-0.571,0.033c0.016-0.039,0.286-0.162,0.608-0.238c0.326-0.086,0.577-0.105,0.567-0.053
			C43.478,39.459,43.203,39.564,42.887,39.658 M42.173,37.417c-4.012,0-5.724-1.96-5.724-6.596v-7.76h-3.371v-3.37h3.445V16
			l4.293-1.453v5.143h4.183v1.066c0.073-0.021,0.153-0.041,0.232-0.051c0.329-0.015,0.581,0.202,0.568,0.487
			c-0.012,0.281-0.293,0.547-0.623,0.561c-0.056,0.002-0.117-0.002-0.178-0.01v1.316h-4.183v6.833c0,1.379,0.144,2.365,0.582,2.989
			c0.25-0.012,0.426,0.056,0.408,0.178c-0.005,0.06-0.052,0.122-0.113,0.156c0.424,0.355,1.007,0.531,1.839,0.531
			c0.548,0,1.16-0.101,1.676-0.271l0.103,3.509C44.46,37.291,43.332,37.417,42.173,37.417 M44.553,29.314
			c-0.331,0.049-0.582-0.078-0.562-0.262c0.016-0.186,0.31-0.387,0.64-0.439c0.328-0.051,0.563,0.08,0.547,0.262
			C45.157,29.059,44.88,29.244,44.553,29.314 M44.711,32.541c-0.026,0.148-0.303,0.312-0.63,0.365
			c-0.33,0.072-0.582-0.01-0.564-0.145c0.02-0.142,0.312-0.308,0.642-0.373C44.485,32.346,44.731,32.392,44.711,32.541
			 M44.916,25.575c-0.331,0.045-0.583-0.124-0.565-0.358c0.017-0.253,0.309-0.474,0.641-0.5c0.328-0.038,0.578,0.125,0.558,0.358
			C45.524,25.318,45.246,25.55,44.916,25.575 M42.009,25.899c-0.328,0.021-0.579-0.148-0.549-0.387
			c0.014-0.258,0.292-0.469,0.621-0.504c0.325-0.043,0.572,0.129,0.553,0.387C42.618,25.632,42.334,25.872,42.009,25.899
			 M42.263,29.289c-0.016,0.207-0.29,0.406-0.614,0.439c-0.324,0.043-0.575-0.07-0.558-0.277c0.019-0.188,0.308-0.389,0.633-0.419
			C42.04,28.987,42.294,29.103,42.263,29.289 M44.78,41.988c-0.325,0.096-0.599,0.167-0.589,0.156
			c0.002-0.025,0.277-0.126,0.601-0.222c0.321-0.096,0.565-0.169,0.559-0.148C45.346,41.789,45.084,41.883,44.78,41.988
			 M45.498,38.956c-0.322,0.086-0.582,0.117-0.569,0.062c0.021-0.054,0.292-0.169,0.616-0.262c0.314-0.085,0.571-0.121,0.563-0.07
			C46.08,38.739,45.821,38.854,45.498,38.956 M45.59,35.712c0.027-0.082,0.305-0.212,0.632-0.314
			c0.322-0.064,0.566-0.056,0.555,0.025c-0.031,0.1-0.297,0.246-0.622,0.322C45.826,35.835,45.573,35.815,45.59,35.712
			 M47.121,41.186c-0.314,0.133-0.574,0.192-0.569,0.172c0.006-0.012,0.267-0.123,0.587-0.219c0.31-0.127,0.547-0.194,0.544-0.182
			C47.679,40.982,47.438,41.081,47.121,41.186 M47.871,38.235c-0.32,0.104-0.571,0.135-0.559,0.097
			c0.007-0.052,0.291-0.175,0.594-0.294c0.32-0.088,0.562-0.135,0.551-0.078C48.444,38.01,48.179,38.131,47.871,38.235
			 M48.539,35.111c-0.321,0.087-0.567,0.088-0.555-0.004c0.02-0.089,0.3-0.243,0.623-0.329c0.319-0.084,0.545-0.085,0.531,0.015
			C49.122,34.872,48.857,35.024,48.539,35.111 M49.985,37.506c-0.308,0.115-0.546,0.164-0.532,0.113
			c0.012-0.061,0.271-0.201,0.58-0.291c0.298-0.132,0.528-0.164,0.517-0.127C50.535,37.25,50.292,37.381,49.985,37.506
			 M50.666,34.474c-0.304,0.082-0.543,0.104-0.527,0.01c0.018-0.098,0.293-0.239,0.594-0.338c0.306-0.102,0.535-0.106,0.509-0.01
			C51.221,34.212,50.971,34.371,50.666,34.474 M50.727,31.209c0.032-0.143,0.3-0.311,0.604-0.385
			c0.304-0.092,0.529-0.049,0.512,0.076c-0.028,0.141-0.288,0.311-0.581,0.404C50.948,31.379,50.71,31.35,50.727,31.209
			 M51.856,36.752c-0.293,0.121-0.521,0.185-0.505,0.125c0.012-0.033,0.264-0.175,0.547-0.3c0.286-0.112,0.496-0.184,0.481-0.123
			C52.369,36.503,52.136,36.64,51.856,36.752 M52.544,33.818c-0.284,0.105-0.516,0.116-0.497,0.039
			c0.019-0.096,0.275-0.254,0.564-0.344c0.28-0.124,0.494-0.135,0.479-0.041C53.065,33.548,52.825,33.708,52.544,33.818
			 M53.134,30.735c-0.285,0.099-0.509,0.077-0.49-0.048c0.028-0.14,0.284-0.312,0.569-0.408c0.29-0.078,0.493-0.055,0.473,0.082
			C53.657,30.484,53.425,30.656,53.134,30.735 M54.171,33.158c-0.259,0.111-0.474,0.146-0.459,0.053
			c0.021-0.074,0.257-0.236,0.532-0.351c0.254-0.131,0.438-0.147,0.422-0.056C54.646,32.878,54.429,33.041,54.171,33.158
			 M54.316,30.148c0.023-0.121,0.268-0.293,0.53-0.411c0.259-0.079,0.443-0.065,0.421,0.048c-0.016,0.121-0.242,0.311-0.5,0.41
			C54.503,30.28,54.294,30.265,54.316,30.148 M55.535,32.492c-0.229,0.141-0.415,0.16-0.398,0.068
			c0.025-0.072,0.23-0.238,0.471-0.358c0.227-0.134,0.387-0.159,0.368-0.088C55.952,32.204,55.767,32.373,55.535,32.492
			 M55.749,29.602c0.018-0.113,0.24-0.289,0.471-0.395c0.226-0.104,0.386-0.097,0.365,0.02c-0.015,0.131-0.22,0.307-0.445,0.395
			C55.911,29.73,55.725,29.721,55.749,29.602 M56.656,31.824c-0.203,0.145-0.357,0.188-0.332,0.098
			c0.013-0.07,0.198-0.238,0.396-0.38c0.194-0.14,0.32-0.172,0.302-0.103C57.005,31.527,56.845,31.699,56.656,31.824 M56.928,29.059
			c0.022-0.115,0.21-0.289,0.41-0.396c0.189-0.107,0.323-0.107,0.297,0.004c-0.021,0.109-0.188,0.286-0.376,0.398
			C57.067,29.193,56.912,29.174,56.928,29.059"/>
	</g>
	<g>
		<g>
			<path fill="#FFFFFF" d="M86.524,43.085h8.986v2.4h-5.933v3.751h5.432v2.4h-5.432v4.276h5.978v2.4h-9.031V43.085z"/>
			<path fill="#FFFFFF" d="M104.651,49.433c-0.894-0.305-1.55-0.479-2.617-0.479c-0.787,0-1.726,0.282-1.726,1.243
				c0,1.789,5.084,0.654,5.084,4.712c0,2.619-2.334,3.665-4.712,3.665c-1.112,0-2.246-0.197-3.315-0.48l0.174-2.4
				c0.916,0.458,1.877,0.742,2.88,0.742c0.742,0,1.92-0.284,1.92-1.374c0-2.204-5.084-0.699-5.084-4.757
				c0-2.42,2.118-3.489,4.407-3.489c1.374,0,2.27,0.217,3.185,0.413L104.651,49.433z"/>
			<path fill="#FFFFFF" d="M108.206,49.216h-2.162v-2.138h2.162v-2.247l2.923-0.938v3.185h2.597v2.138h-2.597v5.235
				c0,0.959,0.261,1.854,1.374,1.854c0.523,0,1.026-0.108,1.33-0.305l0.089,2.312c-0.612,0.174-1.288,0.262-2.162,0.262
				c-2.288,0-3.554-1.418-3.554-3.643V49.216z"/>
			<path fill="#FFFFFF" d="M115.381,42.235h2.923v2.792h-2.923V42.235z M115.381,47.078h2.923v11.235h-2.923V47.078z"/>
			<path fill="#FFFFFF" d="M120.897,47.078h2.728v1.57h0.045c0.916-1.374,2.247-1.832,3.336-1.832c1.572,0,2.685,0.589,3.318,1.985
				c0.675-1.354,2.136-1.985,3.512-1.985c2.771,0,3.555,1.896,3.555,4.405v7.091h-2.923v-6.699c0-1.047,0-2.529-1.681-2.529
				c-1.939,0-2.181,2.312-2.181,3.773v5.454h-2.924v-6.699c0-1.047,0-2.529-1.68-2.529c-1.94,0-2.182,2.312-2.182,3.773v5.454
				h-2.924V47.078z"/>
			<path fill="#FFFFFF" d="M140.421,47.667c1.135-0.523,2.661-0.85,3.904-0.85c3.426,0,4.843,1.417,4.843,4.732v1.441
				c0,1.135,0.022,1.985,0.045,2.813c0.021,0.853,0.065,1.638,0.131,2.51h-2.573c-0.11-0.588-0.11-1.331-0.131-1.68h-0.045
				c-0.677,1.243-2.139,1.942-3.47,1.942c-1.984,0-3.927-1.2-3.927-3.338c0-1.681,0.808-2.662,1.922-3.208
				c1.112-0.546,2.551-0.654,3.773-0.654h1.615c0-1.811-0.808-2.42-2.531-2.42c-1.245,0-2.487,0.479-3.469,1.22L140.421,47.667z
				 M143.847,56.437c0.894,0,1.593-0.393,2.051-1.004c0.479-0.631,0.611-1.439,0.611-2.312h-1.266c-1.311,0-3.252,0.219-3.252,1.942
				C141.991,56.021,142.798,56.437,143.847,56.437z"/>
			<path fill="#FFFFFF" d="M152.592,49.216h-2.158v-2.138h2.158v-2.247l2.923-0.938v3.185h2.598v2.138h-2.598v5.235
				c0,0.959,0.262,1.854,1.377,1.854c0.523,0,1.023-0.108,1.331-0.305l0.084,2.312c-0.61,0.174-1.284,0.262-2.157,0.262
				c-2.293,0-3.558-1.418-3.558-3.643V49.216z"/>
			<path fill="#FFFFFF" d="M168.713,57.68c-1.069,0.588-2.292,0.895-3.862,0.895c-3.71,0-5.869-2.138-5.869-5.826
				c0-3.25,1.724-5.933,5.215-5.933c4.167,0,5.344,2.858,5.344,6.785h-7.766c0.131,1.81,1.396,2.835,3.207,2.835
				c1.417,0,2.64-0.523,3.731-1.134V57.68z M166.748,51.594c-0.088-1.419-0.742-2.639-2.378-2.639c-1.637,0-2.465,1.132-2.596,2.639
				H166.748z"/>
		</g>
		<path fill="#FFFFFF" d="M69.07,22.708c1.123-2.148,3.479-3.409,5.864-3.409c2.388,0,4.362,1.261,4.977,3.478
			c1.261-2.285,3.579-3.478,6.138-3.478c4.362,0,5.761,3.409,5.761,7.739v10.228h-4.602v-9.751c0-3.034-0.99-4.568-2.933-4.568
			c-2.183,0-3.684,2.08-3.684,5.626v8.693H75.99V26.663c0-2.181-0.987-3.716-2.862-3.716c-2.113,0-3.751,2.218-3.751,5.454v8.865
			H64.81V25.165c0-1.672-0.036-3.581-0.169-5.457h4.261c0.067,0.751,0.099,2.114,0.099,3H69.07z"/>
		<path fill="#FFFFFF" d="M113.147,28.54c0,5.487-3.748,9.137-9.238,9.137c-5.452,0-9.238-3.717-9.238-9.171
			c0-5.66,3.75-9.206,9.378-9.206C109.399,19.3,113.147,22.947,113.147,28.54 M99.546,28.54c0,3.441,1.705,5.659,4.331,5.659
			c2.725,0,4.464-2.217,4.464-5.831c0-3.614-1.669-5.693-4.432-5.693C101.184,22.674,99.546,24.788,99.546,28.54"/>
		<path fill="#FFFFFF" d="M113.967,23.085v-3.377h3.441v-3.681l4.297-1.466v5.147h4.194v3.377h-4.194v6.85
			c0,2.662,0.513,3.855,2.728,3.855c0.544,0,1.16-0.104,1.672-0.273l0.101,3.51c-0.852,0.307-1.978,0.444-3.135,0.444
			c-4.024,0-5.729-1.978-5.729-6.614v-7.772H113.967z"/>
		<rect x="128.626" y="12.003" fill="#FFFFFF" width="4.564" height="4.364"/>
		<rect x="128.626" y="19.708" fill="#FFFFFF" width="4.564" height="17.558"/>
		<path fill="#FFFFFF" d="M143.454,29.459c0.341,1.092,0.92,3.068,1.193,4.261h0.067c0.308-1.193,0.887-3.24,1.228-4.261
			l3.101-9.751h4.604l-6.376,17.558h-5.385l-6.444-17.558h4.944L143.454,29.459z"/>
		<path fill="#FFFFFF" d="M159.169,29.766c0.067,2.693,2.249,4.433,5.42,4.433c1.943,0,3.648-0.512,5.114-1.432l0.069,3.751
			c-1.501,0.714-3.514,1.159-5.729,1.159c-5.76,0-9.545-3.376-9.545-9.275c0-5.282,3.515-9.101,8.795-9.101
			c5.08,0,7.707,3.034,7.707,9.375c0,0.272-0.036,0.852-0.07,1.091H159.169z M166.805,26.628c0-2.863-1.433-4.09-3.681-4.09
			c-2.013,0-3.786,1.363-4.022,4.09H166.805z"/>
	</g>
</g>
</svg>
