<?xml version="1.0" encoding="utf-8"?>
<!-- Svg Vector Icons : http://www.onlinewebfonts.com/icon -->
<!DOCTYPE svg PUBLIC "-//W3C//DTD SVG 1.1//EN" "http://www.w3.org/Graphics/SVG/1.1/DTD/svg11.dtd">
<svg version="1.1" xmlns="http://www.w3.org/2000/svg" xmlns:xlink="http://www.w3.org/1999/xlink" x="0px" y="0px" viewBox="0 0 1000 1000" enable-background="new 0 0 1000 1000" xml:space="preserve">
<metadata> Svg Vector Icons : http://www.onlinewebfonts.com/icon </metadata>
<g><path d="M875.9,90h-80v128h42c1.4-0.1,2.8-0.4,4.2-0.4c27,0,48.9,21.9,48.9,48.8s-21.9,48.8-48.9,48.8c-3.7,0-7.3-0.5-10.7-1.3H236h-32h-35.5c-3.5,0.8-7,1.3-10.7,1.3c-3.7,0-7.3-0.5-10.7-1.3h-7.1v-2.2c-18.2-7.1-31.1-24.7-31.1-45.4s12.9-38.3,31.1-45.4v-3h13.6c1.4-0.1,2.7-0.4,4.2-0.4s2.8,0.3,4.2,0.4h42v-48h32v48H764V90h-96v28l-80,36l22.9-71.4L588,10l80,36v28h208V42l64,40l-64,40V90L875.9,90z M268,154h-96v-48h96V154z M322.8,119.9c-21.3,0-39.5-12.2-48.7-29.9h-48.7c-8.4,7.9-21,13.2-34.9,15.6c-0.7,0.1-1.2-6.4-1.5-15.6h-25.4c-9.1,17.7-27.4,29.9-48.7,29.9c-30.4,0-55-24.6-55-54.9c0-30.3,24.6-54.9,55-54.9c28,0,50.8,21,54.3,48h19.6c0.2-15.7,0.8-29.3,1.7-29.4c21.3-2.2,39.3,12,44.1,29.4h33.8c3.5-27,26.3-48,54.3-48c30.4,0,55,24.6,55,54.9S353.2,119.9,322.8,119.9z M460,346h80v80h-80V346z M455.1,793.9h80V990h-80V793.9z M460,457.9h80h48h144v288H572h-32h-80h-16H252v-288h176H460z M518.3,705.9c36,0,66.3-25.8,76.1-61h-25.8c-8.5,21.5-27.8,36.6-50.3,36.6c-30.4,0-55-27.3-55-61c0-33.7,24.6-61,55-61c17.9,0,33.7,9.7,43.7,24.4H590C577.3,555,550,535,518.3,535c-43.9,0-79.4,38.3-79.4,85.5C438.9,667.6,474.5,705.9,518.3,705.9z M402.2,510.6c-13.5,0-24.4,10.9-24.4,24.4c0,13.5,10.9,24.4,24.4,24.4s24.4-10.9,24.4-24.4C426.7,521.5,415.7,510.6,402.2,510.6z M402.2,547.2c-6.7,0-12.2-5.5-12.2-12.2s5.5-12.2,12.2-12.2s12.2,5.5,12.2,12.2C414.5,541.7,409,547.2,402.2,547.2z"/></g>
</svg>