<?xml version="1.0" encoding="utf-8"?>
<!-- Generator: Adobe Illustrator 16.0.3, SVG Export Plug-In . SVG Version: 6.00 Build 0)  -->
<!DOCTYPE svg PUBLIC "-//W3C//DTD SVG 1.1//EN" "http://www.w3.org/Graphics/SVG/1.1/DTD/svg11.dtd">
<svg version="1.1" id="Capa_1" xmlns="http://www.w3.org/2000/svg" xmlns:xlink="http://www.w3.org/1999/xlink" x="0px" y="0px"
	 width="32px" height="32px" viewBox="0 0 32 32" enable-background="new 0 0 32 32" xml:space="preserve">
<g>
	<path fill="#DFDEDE" d="M12.488,21.895l1.482-1.482l6.483-6.483l1.482-1.482l1.979-1.979c0.281,0.124,0.574,0.209,0.87,0.276
		c0.069,0.016,0.139,0.028,0.208,0.041c0.234,0.042,0.471,0.067,0.708,0.073c0.044,0.001,0.087,0.014,0.13,0.014
		c0.018,0,0.033-0.004,0.051-0.005c1.18-0.013,2.352-0.461,3.251-1.361c1.414-1.413,1.726-3.498,0.964-5.218l-3.092,3.089
		l-2.383-2.384l3.09-3.089c-1.725-0.764-3.807-0.45-5.221,0.961c-1.409,1.411-1.723,3.495-0.963,5.219l-9.952,9.955l0,0
		l-1.181,1.181L8.086,21.53c-0.272-0.12-0.554-0.204-0.84-0.271c-0.08-0.019-0.158-0.032-0.238-0.047
		c-0.234-0.042-0.469-0.065-0.705-0.073c-0.044,0-0.088-0.014-0.133-0.014c-0.018,0-0.035,0.004-0.053,0.005
		c-1.179,0.013-2.352,0.462-3.25,1.363c-1.414,1.411-1.726,3.495-0.964,5.218l3.089-3.091l2.385,2.384l-3.09,3.092
		c1.724,0.762,3.807,0.447,5.218-0.964c0.976-0.975,1.414-2.271,1.347-3.547l0,0l0,0c-0.03-0.571-0.15-1.138-0.385-1.67
		L12.488,21.895z"/>
	<path fill="#DFDEDE" d="M9.095,15.96c0,0.534,0.067,1.051,0.182,1.55l1.848-1.848c0.151-2.464,2.114-4.429,4.579-4.58l1.846-1.847
		c-0.5-0.116-1.018-0.183-1.553-0.183c0,0,0,0-0.001,0C12.191,9.055,9.095,12.153,9.095,15.96z"/>
	<path fill="#DFDEDE" d="M16.384,20.827L14.511,22.7c0.48,0.106,0.977,0.166,1.488,0.167c3.81-0.002,6.907-3.1,6.907-6.906
		c0-0.512-0.061-1.009-0.168-1.49l-1.871,1.873C20.68,18.736,18.779,20.636,16.384,20.827z"/>
	<path fill="#DFDEDE" d="M27.514,12.652c-0.543,0.141-1.106,0.221-1.684,0.221c-0.173,0-0.344-0.013-0.514-0.026l1.797,3.113
		l-5.557,9.625h-8.693c0.026,0.679-0.047,1.351-0.224,2h9.494c0.357,0,0.688-0.19,0.866-0.5l6.134-10.625c0.179-0.31,0.179-0.69,0-1
		L27.514,12.652z"/>
	<path fill="#DFDEDE" d="M4.525,19.337c0.532-0.134,1.082-0.211,1.646-0.211c0.188,0,0.373,0.013,0.559,0.028L4.885,15.96
		l5.557-9.628l8.691,0.002c-0.018-0.678,0.059-1.352,0.245-2L9.865,4.332c-0.357,0-0.688,0.19-0.866,0.5L2.864,15.46
		c-0.178,0.31-0.178,0.69,0,1L4.525,19.337z"/>
</g>
</svg>
