<?xml version="1.0" encoding="utf-8"?>
<!-- Generator: Adobe Illustrator 16.0.3, SVG Export Plug-In . SVG Version: 6.00 Build 0)  -->
<!DOCTYPE svg PUBLIC "-//W3C//DTD SVG 1.1//EN" "http://www.w3.org/Graphics/SVG/1.1/DTD/svg11.dtd">
<svg version="1.1" id="Capa_1" xmlns="http://www.w3.org/2000/svg" xmlns:xlink="http://www.w3.org/1999/xlink" x="0px" y="0px"
	 width="32px" height="32px" viewBox="0 0 32 32" enable-background="new 0 0 32 32" xml:space="preserve">
<path fill="#DFDEDE" d="M29.5,18.428v-4.854h-3.509c-0.259-1.049-0.669-2.027-1.212-2.919l2.482-2.482L23.83,4.737L21.346,7.22
	c-0.892-0.552-1.875-0.952-2.92-1.209v-3.51H16C16,2.5,13.574,2.5,13.574,2.5v3.512c-1.044,0.257-2.028,0.661-2.917,1.207
	L8.17,4.741L4.74,8.173l2.481,2.479c-0.542,0.896-0.952,1.875-1.211,2.921H2.5v4.854h3.509c0.259,1.049,0.669,2.027,1.211,2.92
	l-2.48,2.481l3.431,3.435l2.485-2.483c0.891,0.552,1.875,0.952,2.919,1.209v3.51H16c0,0.002,2.426,0.002,2.426,0.002v-3.512
	c1.045-0.257,2.028-0.661,2.917-1.207l2.487,2.478l3.432-3.432l-2.482-2.479c0.543-0.896,0.953-1.875,1.212-2.922H29.5z M16,20.154
	c-2.294,0-4.154-1.86-4.154-4.154c0-2.292,1.859-4.151,4.154-4.154c2.294,0,4.154,1.86,4.154,4.154
	C20.154,18.292,18.294,20.15,16,20.154z"/>
</svg>
