<?xml version="1.0" encoding="utf-8"?>
<!-- Generator: Adobe Illustrator 16.0.3, SVG Export Plug-In . SVG Version: 6.00 Build 0)  -->
<!DOCTYPE svg PUBLIC "-//W3C//DTD SVG 1.1//EN" "http://www.w3.org/Graphics/SVG/1.1/DTD/svg11.dtd">
<svg version="1.1" id="Capa_1" xmlns="http://www.w3.org/2000/svg" xmlns:xlink="http://www.w3.org/1999/xlink" x="0px" y="0px"
	 width="32px" height="32px" viewBox="0 0 32 32" enable-background="new 0 0 32 32" xml:space="preserve">
<g>
	<path fill="#DFDEDE" d="M18.639,27.843c0,1.47-1.168,2.657-2.609,2.657c-1.44,0-2.607-1.188-2.607-2.657H18.639z"/>
	<g>
		<path fill="#DFDEDE" d="M28.832,21.943c-0.055-0.012-0.118-0.021-0.208-0.021c-2.075,0-3.757-1.712-3.757-3.824v-8.072
			c0-3.686-2.863-6.682-6.448-6.83l-0.737-0.015c0-0.927-0.74-1.681-1.652-1.681c-0.911,0-1.651,0.754-1.651,1.681h-0.521l0,0l0,0
			c-3.712,0-6.722,3.067-6.722,6.845v8.072c0,2.112-1.681,3.824-3.756,3.824c-0.091,0-0.156,0.01-0.21,0.021
			c-0.937,0.107-1.668,0.908-1.668,1.892c0,1.058,0.841,1.911,1.878,1.911h3.756h0.001h17.729h3.756
			c1.038,0,1.878-0.854,1.878-1.911C30.501,22.854,29.77,22.052,28.832,21.943z"/>
	</g>
</g>
</svg>
