<?xml version="1.0" encoding="utf-8"?>
<!-- Generator: Adobe Illustrator 16.0.3, SVG Export Plug-In . SVG Version: 6.00 Build 0)  -->
<!DOCTYPE svg PUBLIC "-//W3C//DTD SVG 1.1//EN" "http://www.w3.org/Graphics/SVG/1.1/DTD/svg11.dtd">
<svg version="1.1" id="Capa_1" xmlns="http://www.w3.org/2000/svg" xmlns:xlink="http://www.w3.org/1999/xlink" x="0px" y="0px"
	 width="16px" height="16px" viewBox="0 0 16 16" enable-background="new 0 0 16 16" xml:space="preserve">
<g>
	<polygon fill="#DFDEDE" points="15.98,16 7.981,16 7.981,14 13.98,14 13.98,2 7.981,2 7.981,0 15.98,0 15.98,0 	"/>
	<path fill="#DFDEDE" d="M9.066,7.084H3.271l2.624-2.521c0.372-0.359,0.372-0.938,0-1.295c-0.371-0.359-0.975-0.359-1.347,0
		l-4.25,4.084C0.211,7.436,0.141,7.535,0.092,7.646C0.044,7.758,0.019,7.877,0.019,8c0,0.121,0.026,0.242,0.074,0.352
		c0.048,0.111,0.119,0.212,0.206,0.296l4.25,4.082c0.186,0.179,0.43,0.269,0.673,0.269c0.243,0,0.488-0.09,0.674-0.269
		c0.372-0.356,0.372-0.938,0-1.295l-2.623-2.52h5.795c0.525,0,0.951-0.41,0.951-0.916S9.592,7.084,9.066,7.084z"/>
</g>
</svg>
