<?xml version="1.0" encoding="utf-8"?>
<!-- Generator: Adobe Illustrator 16.0.3, SVG Export Plug-In . SVG Version: 6.00 Build 0)  -->
<!DOCTYPE svg PUBLIC "-//W3C//DTD SVG 1.1//EN" "http://www.w3.org/Graphics/SVG/1.1/DTD/svg11.dtd">
<svg version="1.1" id="Capa_1" xmlns="http://www.w3.org/2000/svg" xmlns:xlink="http://www.w3.org/1999/xlink" x="0px" y="0px"
	 width="32px" height="32px" viewBox="0 0 32 32" enable-background="new 0 0 32 32" xml:space="preserve">
<g>
	<path fill="#DFDEDE" d="M30.925,28.742l-5.704-5.7c-0.473-0.472-1.17-0.56-1.74-0.289l-1.16-1.158
		c2.056-2.231,3.193-5.103,3.193-8.154c0-3.224-1.257-6.256-3.537-8.536c-2.281-2.279-5.312-3.535-8.536-3.535
		S7.185,2.625,4.904,4.904C0.2,9.612,0.2,17.27,4.905,21.975c2.28,2.278,5.312,3.532,8.536,3.532c3.052,0,5.922-1.136,8.155-3.188
		l1.16,1.16c-0.27,0.57-0.183,1.268,0.289,1.739l5.705,5.7c0.301,0.301,0.693,0.451,1.088,0.451s0.788-0.151,1.088-0.452
		C31.525,30.316,31.525,29.343,30.925,28.742z M13.441,23.457c-2.677,0-5.193-1.041-7.085-2.932c-3.905-3.905-3.905-10.262,0-14.17
		c1.893-1.892,4.409-2.934,7.085-2.934c2.676,0,5.192,1.042,7.084,2.934c1.894,1.893,2.937,4.41,2.937,7.086
		c0,2.676-1.043,5.192-2.937,7.084C18.634,22.416,16.118,23.457,13.441,23.457z"/>
	<path fill="#DFDEDE" d="M17.191,6.942H9.69l-3.749,6.496l3.749,6.496h7.501l3.75-6.496L17.191,6.942z M13.44,16.811
		c-1.861,0-3.368-1.509-3.368-3.373c0-1.86,1.507-3.368,3.368-3.369c1.863,0.001,3.373,1.509,3.373,3.369
		C16.813,15.301,15.303,16.811,13.44,16.811z"/>
</g>
</svg>
