<?xml version="1.0" encoding="utf-8"?>
<!-- Generator: Adobe Illustrator 16.0.0, SVG Export Plug-In . SVG Version: 6.00 Build 0)  -->
<!DOCTYPE svg PUBLIC "-//W3C//DTD SVG 1.1//EN" "http://www.w3.org/Graphics/SVG/1.1/DTD/svg11.dtd">
<svg version="1.1" id="Capa_1" xmlns="http://www.w3.org/2000/svg" xmlns:xlink="http://www.w3.org/1999/xlink" x="0px" y="0px"
	 width="16px" height="16px" viewBox="0 0 16 16" enable-background="new 0 0 16 16" xml:space="preserve">
<path fill="#474542" d="M14,6h-1.5V4.5C12.5,2.019,10.481,0,8,0S3.5,2.019,3.5,4.5V6H2C1.448,6,1,6.448,1,7v8c0,0.552,0.448,1,1,1
	h12c0.552,0,1-0.448,1-1V7C15,6.448,14.552,6,14,6z M9,11.848v2.027H7v-2.027c-0.595-0.346-1-0.984-1-1.723c0-1.105,0.895-2,2-2
	s2,0.895,2,2C10,10.864,9.595,11.501,9,11.848z M10.5,6h-5V4.5C5.5,3.122,6.622,2,8,2s2.5,1.122,2.5,2.5V6z"/>
</svg>
