<?xml version="1.0" encoding="utf-8"?>
<!-- Generator: Adobe Illustrator 16.0.0, SVG Export Plug-In . SVG Version: 6.00 Build 0)  -->
<!DOCTYPE svg PUBLIC "-//W3C//DTD SVG 1.1//EN" "http://www.w3.org/Graphics/SVG/1.1/DTD/svg11.dtd">
<svg version="1.1" id="Capa_1" xmlns="http://www.w3.org/2000/svg" xmlns:xlink="http://www.w3.org/1999/xlink" x="0px" y="0px"
	 width="32px" height="32px" viewBox="0 0 32 32" enable-background="new 0 0 32 32" xml:space="preserve">
<g>
	<path fill="#FFFFFF" d="M15.23,16.431c0.114-0.275,0.114-0.586,0-0.862c-0.034-0.083-0.093-0.149-0.145-0.221
		c-0.033-0.046-0.052-0.099-0.092-0.14l-5.496-5.57C9.065,9.2,8.364,9.2,7.931,9.638s-0.433,1.146,0,1.584l3.606,3.659H2.611
		c-0.612,0-1.106,0.501-1.106,1.119c0,0.619,0.494,1.12,1.106,1.12h8.926l-3.605,3.658c-0.433,0.438-0.433,1.146,0,1.584
		c0.216,0.219,0.5,0.328,0.783,0.328s0.566-0.109,0.783-0.328l5.496-5.57c0.023-0.024,0.032-0.057,0.054-0.082
		C15.118,16.624,15.187,16.536,15.23,16.431z"/>
	<path fill="#FFFFFF" d="M16.77,15.569c-0.114,0.275-0.114,0.586,0,0.862c0.034,0.083,0.093,0.149,0.145,0.221
		c0.033,0.046,0.052,0.099,0.092,0.14l5.496,5.57c0.433,0.438,1.134,0.438,1.566,0s0.433-1.146,0-1.584l-3.606-3.659h8.927
		c0.612,0,1.106-0.501,1.106-1.119c0-0.619-0.494-1.12-1.106-1.12h-8.926l3.605-3.658c0.433-0.438,0.433-1.146,0-1.584
		c-0.216-0.219-0.5-0.328-0.783-0.328s-0.566,0.109-0.783,0.328l-5.496,5.57c-0.023,0.024-0.032,0.057-0.054,0.082
		C16.882,15.376,16.813,15.464,16.77,15.569z"/>
</g>
</svg>
