<?xml version="1.0" encoding="utf-8"?>
<!-- Generator: Adobe Illustrator 16.0.0, SVG Export Plug-In . SVG Version: 6.00 Build 0)  -->
<!DOCTYPE svg PUBLIC "-//W3C//DTD SVG 1.1//EN" "http://www.w3.org/Graphics/SVG/1.1/DTD/svg11.dtd">
<svg version="1.1" id="Capa_1" xmlns="http://www.w3.org/2000/svg" xmlns:xlink="http://www.w3.org/1999/xlink" x="0px" y="0px"
	 width="32px" height="32px" viewBox="0 0 32 32" enable-background="new 0 0 32 32" xml:space="preserve">
<g>
	<g>
		<path fill="#FFFFFF" d="M13.913,27.406h-0.69c-1.422-0.006-1.553-0.795-1.604-1.104L8.394,8.091
			c-0.125-0.759,0.329-1.482,1.014-1.61l4.505-0.852V3.474L9.027,4.398C7.229,4.736,6.022,6.55,6.337,8.455l3.224,18.209
			c0.044,0.265,0.119,0.51,0.208,0.742H4v1.119h9.221c0.005,0,0.01,0.001,0.015,0.001h0.676V27.406z"/>
		<path fill="#FFFFFF" d="M23.191,27.406c0.214-0.617,0.298-1.299,0.188-1.967L19.776,5.945c-0.178-1.084-0.826-1.966-1.689-2.464
			v4.812l3.236,17.517c0.078,0.477-0.049,1.013-0.317,1.334c-0.219,0.263-0.437,0.263-0.508,0.263h-2.411v1.119h2.411H28v-1.119
			H23.191z"/>
	</g>
	<path fill="#FFFFFF" d="M16.521,30.5h-1.043v-3.576h1.043V30.5z M16.521,22.687h-1.043V18.45h1.043V22.687z M16.521,14.212h-1.043
		V9.975h1.043V14.212z M16.521,5.737h-1.043V1.5h1.043V5.737z"/>
</g>
</svg>
