<?xml version="1.0" encoding="utf-8"?>
<!-- Generator: Adobe Illustrator 16.0.0, SVG Export Plug-In . SVG Version: 6.00 Build 0)  -->
<!DOCTYPE svg PUBLIC "-//W3C//DTD SVG 1.1//EN" "http://www.w3.org/Graphics/SVG/1.1/DTD/svg11.dtd">
<svg version="1.1" id="Capa_1" xmlns="http://www.w3.org/2000/svg" xmlns:xlink="http://www.w3.org/1999/xlink" x="0px" y="0px"
	 width="32px" height="32px" viewBox="0 0 32 32" enable-background="new 0 0 32 32" xml:space="preserve">
<g>
	<path fill="#FFFFFF" d="M14.704,17.056H6.407c-0.276,0-0.5,0.224-0.5,0.5v8.296c0,0.276,0.224,0.5,0.5,0.5h8.296
		c0.276,0,0.5-0.224,0.5-0.5v-8.296C15.204,17.279,14.98,17.056,14.704,17.056z M14.204,25.352H6.907v-7.296h7.296V25.352z"/>
	<rect x="18.333" y="24.352" fill="#FFFFFF" width="7.259" height="2"/>
	<rect x="18.333" y="12.944" fill="#FFFFFF" width="7.259" height="2"/>
	<path fill="#FFFFFF" d="M26.649,2H5.351C3.503,2,2,3.543,2,5.44v21.12C2,28.458,3.503,30,5.351,30h21.298
		C28.497,30,30,28.458,30,26.561V5.44C30,3.543,28.497,2,26.649,2z M29,26.561C29,27.905,27.945,29,26.649,29H5.351
		C4.055,29,3,27.905,3,26.561V5.44C3,4.095,4.055,3,5.351,3h21.298C27.945,3,29,4.095,29,5.44V26.561z"/>
	<polygon fill="#FFFFFF" points="11.073,9.802 8.715,7.943 7.785,8.735 11.073,13.092 16.373,4.844 15.465,4.844 	"/>
	<path fill="#FFFFFF" d="M14.204,13.944H6.907V6.648h4.288l0.886-1H6.407c-0.276,0-0.5,0.224-0.5,0.5v8.296
		c0,0.276,0.224,0.5,0.5,0.5h8.296c0.276,0,0.5-0.224,0.5-0.5v-4.081l-1,1.557V13.944z"/>
</g>
</svg>
