<?xml version="1.0" encoding="utf-8"?>
<!-- Generator: Adobe Illustrator 16.0.0, SVG Export Plug-In . SVG Version: 6.00 Build 0)  -->
<!DOCTYPE svg PUBLIC "-//W3C//DTD SVG 1.1//EN" "http://www.w3.org/Graphics/SVG/1.1/DTD/svg11.dtd">
<svg version="1.1" id="Capa_1" xmlns="http://www.w3.org/2000/svg" xmlns:xlink="http://www.w3.org/1999/xlink" x="0px" y="0px"
	 width="32px" height="32px" viewBox="0 0 32 32" enable-background="new 0 0 32 32" xml:space="preserve">
<g>
	<polygon fill="#FFFFFF" points="2.5,5.788 9.519,5.788 9.519,2.5 8.519,2.5 8.519,4.788 1.5,4.788 1.5,23.751 16.037,23.751 
		16.037,27.153 17.037,27.153 17.037,22.751 2.5,22.751 	"/>
	<polygon fill="#FFFFFF" points="15.963,4.788 15.963,2.5 14.963,2.5 14.963,5.788 29.5,5.788 29.5,22.751 22.481,22.751 
		22.481,27.153 23.481,27.153 23.481,23.751 30.5,23.751 30.5,4.788 	"/>
	<path fill="#FFFFFF" d="M27.5,20.751v-4.149c-11.5,0-11.5-4.67-23-4.67v8.819h14.259V29.5c0,0.553,0.448,1,1,1s1-0.447,1-1v-8.749
		H27.5z"/>
	<path fill="#FFFFFF" d="M12.241,10.653c0.552,0,1-0.447,1-1V2.5c0-0.553-0.448-1-1-1s-1,0.447-1,1v7.153
		C11.241,10.206,11.689,10.653,12.241,10.653z"/>
</g>
</svg>
