<?xml version="1.0" encoding="utf-8"?>
<!-- Generator: Adobe Illustrator 16.0.0, SVG Export Plug-In . SVG Version: 6.00 Build 0)  -->
<!DOCTYPE svg PUBLIC "-//W3C//DTD SVG 1.1//EN" "http://www.w3.org/Graphics/SVG/1.1/DTD/svg11.dtd">
<svg version="1.1" id="Capa_1" xmlns="http://www.w3.org/2000/svg" xmlns:xlink="http://www.w3.org/1999/xlink" x="0px" y="0px"
	 width="16px" height="16px" viewBox="0 0 16 16" enable-background="new 0 0 16 16" xml:space="preserve">
<g>
	<path fill="#474542" d="M14.278,1.722C13.167,0.611,11.691,0,10.121,0S7.075,0.611,5.964,1.722C3.798,3.89,3.707,7.327,5.637,9.632
		l-0.391,0.393C4.671,9.752,3.969,9.84,3.494,10.315l-3.041,3.042c-0.604,0.604-0.604,1.585,0,2.19C0.756,15.849,1.152,16,1.548,16
		c0.396,0,0.793-0.151,1.095-0.454l3.041-3.042c0.475-0.476,0.562-1.176,0.291-1.751l0.39-0.39c1.056,0.886,2.361,1.392,3.756,1.392
		c1.57,0,3.046-0.611,4.157-1.722C15.388,8.924,16,7.449,16,5.879C16,4.309,15.389,2.833,14.278,1.722z M12.818,8.575
		c-1.441,1.441-3.953,1.441-5.394,0c-1.486-1.487-1.486-3.905,0-5.393c0.721-0.721,1.679-1.117,2.697-1.117
		c1.019,0,1.976,0.396,2.697,1.117s1.118,1.678,1.118,2.697C13.936,6.897,13.539,7.854,12.818,8.575z"/>
	<path fill="#474542" d="M7.783,3.541c-0.202,0.201-0.202,0.528,0,0.729s0.528,0.202,0.73,0c0.886-0.885,2.329-0.885,3.217,0
		c0.101,0.101,0.232,0.151,0.364,0.151s0.265-0.05,0.365-0.152c0.201-0.202,0.201-0.528-0.001-0.729
		C11.168,2.253,9.072,2.253,7.783,3.541z"/>
</g>
</svg>
