<?xml version="1.0" encoding="utf-8"?>
<!-- Generator: Adobe Illustrator 16.0.0, SVG Export Plug-In . SVG Version: 6.00 Build 0)  -->
<!DOCTYPE svg PUBLIC "-//W3C//DTD SVG 1.1//EN" "http://www.w3.org/Graphics/SVG/1.1/DTD/svg11.dtd">
<svg version="1.1" id="Capa_1" xmlns="http://www.w3.org/2000/svg" xmlns:xlink="http://www.w3.org/1999/xlink" x="0px" y="0px"
	 width="32px" height="32px" viewBox="0 0 32 32" enable-background="new 0 0 32 32" xml:space="preserve">
<g>
	
		<rect x="-3.963" y="15.457" transform="matrix(0.7071 -0.7071 0.7071 0.7071 -6.6274 16)" fill="#FFFFFF" width="39.927" height="1.086"/>
	<path fill="#FFFFFF" d="M10.053,17.338c-0.098-0.433-0.155-0.882-0.155-1.342c0-3.366,2.733-6.103,6.102-6.104
		c0.463,0,0.91,0.057,1.345,0.155l5.574-5.575L22.786,4.24H9.212L2.424,15.996l3.283,5.687L10.053,17.338z"/>
	<path fill="#FFFFFF" d="M21.947,14.658c0.096,0.433,0.151,0.878,0.151,1.338c0,3.368-2.729,6.099-6.098,6.101
		c-0.461,0-0.908-0.058-1.341-0.152l-5.58,5.58l0.132,0.229h3.372c1.179-1.736,3.171-2.881,5.427-2.881
		c1.014,0,1.97,0.238,2.824,0.649c0.247-3.546,3.194-6.354,6.806-6.355c0.032,0,0.064,0.004,0.098,0.006l1.832-3.175l-3.28-5.685
		L21.947,14.658z"/>
</g>
</svg>
