<?xml version="1.0" encoding="utf-8"?>
<!-- Generator: Adobe Illustrator 16.0.0, SVG Export Plug-In . SVG Version: 6.00 Build 0)  -->
<!DOCTYPE svg PUBLIC "-//W3C//DTD SVG 1.1//EN" "http://www.w3.org/Graphics/SVG/1.1/DTD/svg11.dtd">
<svg version="1.1" id="Capa_1" xmlns="http://www.w3.org/2000/svg" xmlns:xlink="http://www.w3.org/1999/xlink" x="0px" y="0px"
	 width="32px" height="32px" viewBox="0 0 32 32" enable-background="new 0 0 32 32" xml:space="preserve">
<path fill="#474542" d="M25.464,2H6.536C4.754,2,3.305,3.489,3.305,5.317v21.366C3.305,28.513,4.754,30,6.536,30h18.928
	c1.782,0,3.231-1.487,3.231-3.316V5.317C28.695,3.489,27.246,2,25.464,2z M10.615,22.66H8.246v-2.211h2.369V22.66z M10.615,17.105
	H8.246v-2.211h2.369V17.105z M10.615,11.552H8.246V9.341h2.369V11.552z M23.754,22.66H12.77v-2.211h10.984V22.66z M23.754,17.105
	H12.77v-2.211h10.984V17.105z M23.754,11.552H12.77V9.341h10.984V11.552z"/>
</svg>
