<?xml version="1.0" encoding="utf-8"?>
<!-- Generator: Adobe Illustrator 16.0.0, SVG Export Plug-In . SVG Version: 6.00 Build 0)  -->
<!DOCTYPE svg PUBLIC "-//W3C//DTD SVG 1.1//EN" "http://www.w3.org/Graphics/SVG/1.1/DTD/svg11.dtd">
<svg version="1.1" id="Capa_1" xmlns="http://www.w3.org/2000/svg" xmlns:xlink="http://www.w3.org/1999/xlink" x="0px" y="0px"
	 width="32px" height="32px" viewBox="0 0 32 32" enable-background="new 0 0 32 32" xml:space="preserve">
<g>
	<path fill="#FFFFFF" d="M29.267,6.292c-0.533-0.146-1.083,0.165-1.23,0.7l-1.131,4.109c-0.155-0.346-0.321-0.688-0.51-1.021
		c-1.576-2.787-4.14-4.792-7.218-5.644c-3.076-0.852-6.302-0.451-9.078,1.132c-2.057,1.173-3.703,2.904-4.762,5.005
		c-0.249,0.495-0.052,1.099,0.441,1.349s1.096,0.051,1.344-0.443c0.881-1.749,2.252-3.189,3.965-4.166
		c2.312-1.318,4.997-1.651,7.559-0.942c2.562,0.709,4.696,2.378,6.009,4.7c0.438,0.774,0.754,1.591,0.971,2.435l-6.078-1.68
		c-0.532-0.147-1.083,0.167-1.229,0.701s0.166,1.086,0.698,1.233l7.615,2.105c0.056,0.015,0.111,0.017,0.167,0.022
		c0.033,0.003,0.063,0.019,0.097,0.019c0.032,0,0.065-0.001,0.099-0.005c0.041-0.004,0.074-0.026,0.113-0.035
		c0.062-0.013,0.121-0.03,0.178-0.054c0.055-0.023,0.105-0.049,0.154-0.082c0.051-0.033,0.095-0.073,0.14-0.116
		c0.04-0.039,0.081-0.074,0.114-0.119c0.042-0.056,0.071-0.121,0.101-0.186c0.02-0.044,0.047-0.083,0.06-0.13
		c0.001-0.005,0.005-0.009,0.007-0.015l2.102-7.638C30.111,6.993,29.799,6.44,29.267,6.292z"/>
	<path fill="#FFFFFF" d="M26.347,19.744c-0.5-0.234-1.096-0.017-1.329,0.485c-0.876,1.884-2.296,3.424-4.105,4.457
		c-2.311,1.318-4.995,1.651-7.558,0.942c-2.563-0.709-4.698-2.378-6.01-4.698c-0.438-0.775-0.755-1.594-0.973-2.438l6.08,1.681
		c0.532,0.147,1.083-0.166,1.229-0.701c0.146-0.534-0.166-1.086-0.698-1.233l-7.615-2.105c-0.084-0.023-0.168-0.017-0.251-0.018
		c-0.041-0.001-0.077-0.016-0.119-0.012c-0.003,0-0.005,0.002-0.009,0.003c-0.095,0.011-0.182,0.046-0.269,0.083
		c-0.035,0.015-0.075,0.018-0.107,0.037c-0.036,0.02-0.062,0.054-0.095,0.079c-0.072,0.052-0.145,0.103-0.2,0.172
		c-0.005,0.006-0.006,0.014-0.011,0.02c-0.075,0.1-0.133,0.211-0.167,0.333c0,0.001-0.001,0.002-0.001,0.003l-2.102,7.642
		c-0.147,0.535,0.165,1.087,0.698,1.234c0.089,0.025,0.178,0.037,0.267,0.037c0.438,0,0.841-0.292,0.963-0.737l1.13-4.11
		c0.155,0.346,0.322,0.688,0.51,1.021c1.576,2.787,4.14,4.79,7.218,5.642C13.879,27.855,14.952,28,16.02,28
		c2.041,0,4.058-0.53,5.881-1.569c2.173-1.239,3.877-3.09,4.93-5.354C27.063,20.575,26.847,19.978,26.347,19.744z"/>
</g>
</svg>
