<?xml version="1.0" encoding="utf-8"?>
<!-- Generator: Adobe Illustrator 16.0.0, SVG Export Plug-In . SVG Version: 6.00 Build 0)  -->
<!DOCTYPE svg PUBLIC "-//W3C//DTD SVG 1.1//EN" "http://www.w3.org/Graphics/SVG/1.1/DTD/svg11.dtd">
<svg version="1.1" id="Capa_1" xmlns="http://www.w3.org/2000/svg" xmlns:xlink="http://www.w3.org/1999/xlink" x="0px" y="0px"
	 width="32px" height="32px" viewBox="0 0 32 32" enable-background="new 0 0 32 32" xml:space="preserve">
<g>
	<path fill="#FFFFFF" d="M28.413,22.74c0.114-0.276,0.114-0.586,0-0.861c-0.041-0.101-0.108-0.184-0.175-0.267
		c-0.024-0.03-0.034-0.066-0.062-0.094l-5.496-5.57c-0.433-0.438-1.133-0.438-1.566,0c-0.433,0.437-0.433,1.146,0,1.584l3.606,3.659
		H4.608c-0.612,0-1.106,0.5-1.106,1.119c0,0.619,0.494,1.12,1.106,1.12h20.111l-3.606,3.659c-0.433,0.438-0.433,1.146,0,1.584
		C21.33,28.891,21.613,29,21.896,29c0.284,0,0.567-0.109,0.783-0.328l5.496-5.571c0.018-0.018,0.024-0.042,0.041-0.062
		C28.294,22.949,28.367,22.853,28.413,22.74z"/>
	<path fill="#FFFFFF" d="M3.587,10.123c0.037,0.091,0.1,0.164,0.158,0.24c0.029,0.039,0.044,0.085,0.079,0.121l5.496,5.569
		c0.216,0.219,0.5,0.328,0.783,0.328c0.283,0,0.567-0.109,0.783-0.328c0.433-0.438,0.433-1.146,0-1.584l-3.605-3.657h20.11
		c0.612,0,1.106-0.502,1.106-1.121c0-0.619-0.494-1.12-1.106-1.12H7.281l3.606-3.659c0.433-0.438,0.433-1.146,0-1.584
		c-0.433-0.438-1.134-0.438-1.566,0L3.824,8.899c-0.018,0.018-0.023,0.042-0.04,0.06C3.706,9.05,3.634,9.147,3.587,9.26
		C3.473,9.536,3.473,9.847,3.587,10.123z"/>
</g>
</svg>
