<?xml version="1.0" encoding="utf-8"?>
<!-- Generator: Adobe Illustrator 16.0.0, SVG Export Plug-In . SVG Version: 6.00 Build 0)  -->
<!DOCTYPE svg PUBLIC "-//W3C//DTD SVG 1.1//EN" "http://www.w3.org/Graphics/SVG/1.1/DTD/svg11.dtd">
<svg version="1.1" id="Capa_1" xmlns="http://www.w3.org/2000/svg" xmlns:xlink="http://www.w3.org/1999/xlink" x="0px" y="0px"
	 width="32px" height="32px" viewBox="0 0 32 32" enable-background="new 0 0 32 32" xml:space="preserve">
<g>
	<path fill="#FFFFFF" d="M15.333,10.527l-0.972-0.994l-0.275-0.281l2.202-2.254l0.762,0.78C17.26,7.993,17.535,8.1,17.811,8.1
		c0.276,0,0.552-0.107,0.762-0.322c0.421-0.432,0.421-1.129,0-1.56l-3.807-3.896c-0.421-0.43-1.103-0.43-1.523,0
		c-0.42,0.431-0.42,1.129,0,1.559l0.762,0.781l-2.202,2.253l-0.273-0.282c-0.423-0.431-1.103-0.431-1.522,0l-2.836,2.9
		c-0.202,0.207-0.315,0.487-0.315,0.78c0,0.292,0.114,0.572,0.315,0.779l0.275,0.28l-2.202,2.256l-1.405-1.439
		c-0.42-0.431-1.102-0.431-1.523,0c-0.42,0.431-0.42,1.127,0,1.559l5.095,5.214c0.21,0.214,0.485,0.322,0.761,0.322
		s0.551-0.107,0.761-0.322c0.421-0.432,0.421-1.129,0-1.56l-1.405-1.439l2.202-2.253l0.276,0.284l0.969,0.992L15.333,10.527z"/>
	<path fill="#FFFFFF" d="M29.685,25.216l-12.828-13.13l-4.358,4.459l12.83,13.131C25.53,29.884,25.804,30,26.09,30
		c0.284,0,0.56-0.116,0.762-0.324l2.833-2.901C30.105,26.344,30.105,25.647,29.685,25.216z"/>
</g>
</svg>
