<?xml version="1.0" encoding="utf-8"?>
<!-- Generator: Adobe Illustrator 16.0.0, SVG Export Plug-In . SVG Version: 6.00 Build 0)  -->
<!DOCTYPE svg PUBLIC "-//W3C//DTD SVG 1.1//EN" "http://www.w3.org/Graphics/SVG/1.1/DTD/svg11.dtd">
<svg version="1.1" id="Capa_1" xmlns="http://www.w3.org/2000/svg" xmlns:xlink="http://www.w3.org/1999/xlink" x="0px" y="0px"
	 width="16px" height="16px" viewBox="0 0 16 16" enable-background="new 0 0 16 16" xml:space="preserve">
<g>
	<path fill="#FFFFFF" d="M2.857,9.481H0.389C0.175,9.481,0,9.658,0,9.876v2.51c0,0.219,0.175,0.396,0.389,0.396h2.468
		c0.216,0,0.39-0.177,0.39-0.396v-2.51C3.247,9.658,3.073,9.481,2.857,9.481z"/>
	<path fill="#FFFFFF" d="M12.175,0H9.707C9.491,0,9.316,0.178,9.316,0.397v2.51c0,0.218,0.175,0.396,0.391,0.396h2.468
		c0.214,0,0.389-0.177,0.389-0.396v-2.51C12.563,0.178,12.389,0,12.175,0z"/>
	<path fill="#FFFFFF" d="M5.049,3.303h2.463c0.216,0,0.39-0.177,0.39-0.396v-2.51C7.903,0.178,7.729,0,7.513,0H5.049
		C4.833,0,4.66,0.178,4.66,0.397v2.51C4.66,3.126,4.833,3.303,5.049,3.303z"/>
	<path fill="#FFFFFF" d="M2.856,0H0.389C0.175,0,0,0.178,0,0.397v2.51c0,0.218,0.175,0.396,0.389,0.396h2.467
		c0.147,0,0.283-0.085,0.35-0.219c0.026-0.055,0.041-0.117,0.041-0.178V0.397C3.247,0.178,3.072,0,2.856,0z"/>
	<path fill="#FFFFFF" d="M2.856,4.744H0.389C0.175,4.744,0,4.921,0,5.14v2.505C0,7.863,0.175,8.04,0.389,8.04h2.468
		c0.104,0,0.202-0.042,0.275-0.115C3.206,7.85,3.247,7.75,3.247,7.645V5.14C3.247,4.921,3.072,4.744,2.856,4.744z"/>
	<g>
		<path fill="#FFFFFF" d="M4.948,8.021c0.606-1.324,1.618-2.417,2.878-3.104C7.755,4.815,7.644,4.744,7.513,4.744H5.049
			c-0.104,0-0.202,0.041-0.276,0.115C4.7,4.934,4.66,5.035,4.66,5.14v2.505C4.66,7.826,4.784,7.973,4.948,8.021z"/>
	</g>
	<path fill="#FFFFFF" d="M10.941,5.705c-2.79,0-5.06,2.308-5.06,5.146S8.151,16,10.941,16C13.731,16,16,13.69,16,10.852
		S13.731,5.705,10.941,5.705z M14.332,11.645h-2.613v2.659h-1.557v-2.659H7.548v-1.584h2.613V7.402h1.557v2.658h2.613V11.645z"/>
</g>
</svg>
