<?xml version="1.0" encoding="utf-8"?>
<!-- Generator: Adobe Illustrator 16.0.0, SVG Export Plug-In . SVG Version: 6.00 Build 0)  -->
<!DOCTYPE svg PUBLIC "-//W3C//DTD SVG 1.1//EN" "http://www.w3.org/Graphics/SVG/1.1/DTD/svg11.dtd">
<svg version="1.1" id="Capa_1" xmlns="http://www.w3.org/2000/svg" xmlns:xlink="http://www.w3.org/1999/xlink" x="0px" y="0px"
	 width="32px" height="32px" viewBox="0 0 32 32" enable-background="new 0 0 32 32" xml:space="preserve">
<g>
	<path fill="#FFFFFF" d="M26.649,2H5.351C3.503,2,2,3.543,2,5.44v21.12C2,28.458,3.503,30,5.351,30h21.298
		C28.497,30,30,28.458,30,26.561V5.44C30,3.543,28.497,2,26.649,2z M29,26.561C29,27.905,27.945,29,26.649,29H5.351
		C4.055,29,3,27.905,3,26.561V5.44C3,4.095,4.055,3,5.351,3h21.298C27.945,3,29,4.095,29,5.44V26.561z"/>
	<path fill="#FFFFFF" d="M23.47,8.429l-8.932,13.097l-6.187-5.261c-0.421-0.358-1.052-0.308-1.41,0.114
		c-0.358,0.421-0.307,1.052,0.114,1.409l7.035,5.981c0.182,0.154,0.412,0.238,0.648,0.238c0.044,0,0.089-0.003,0.133-0.009
		c0.281-0.038,0.533-0.193,0.693-0.428l9.558-14.016c0.311-0.456,0.193-1.078-0.263-1.39C24.404,7.855,23.781,7.973,23.47,8.429z"/>
</g>
</svg>
