<?xml version="1.0" encoding="utf-8"?>
<!-- Generator: Adobe Illustrator 16.0.0, SVG Export Plug-In . SVG Version: 6.00 Build 0)  -->
<!DOCTYPE svg PUBLIC "-//W3C//DTD SVG 1.1//EN" "http://www.w3.org/Graphics/SVG/1.1/DTD/svg11.dtd">
<svg version="1.1" id="Capa_1" xmlns="http://www.w3.org/2000/svg" xmlns:xlink="http://www.w3.org/1999/xlink" x="0px" y="0px"
	 width="32px" height="32px" viewBox="0 0 32 32" enable-background="new 0 0 32 32" xml:space="preserve">
<g>
	<polygon fill="#FFFFFF" points="16,4.357 16,2.286 14.964,2.286 14.964,5.393 29.464,5.393 29.464,29.25 2.536,29.25 2.536,5.393 
		9.786,5.393 9.786,2.286 8.75,2.286 8.75,4.357 1.5,4.357 1.5,30.25 30.5,30.25 30.5,4.357 	"/>
	<path fill="#FFFFFF" d="M12.375,8.5c0.572,0,1.036-0.463,1.036-1.036V2.286c0-0.573-0.464-1.036-1.036-1.036
		s-1.036,0.463-1.036,1.036v5.178C11.339,8.037,11.803,8.5,12.375,8.5z"/>
	<g>
		<path fill="#FFFFFF" d="M6.053,11.136c-0.239,0.051-0.41,0.263-0.41,0.507v8.286c0,0.286,0.231,0.518,0.518,0.518
			s0.518-0.231,0.518-0.518v-5.852l2.7,6.062c0.083,0.188,0.269,0.308,0.473,0.308c0.001,0,0.002,0,0.003,0
			c0.206-0.001,0.391-0.124,0.472-0.313l2.565-5.973v5.769c0,0.286,0.231,0.518,0.518,0.518s0.518-0.231,0.518-0.518v-8.286
			c0-0.245-0.173-0.458-0.414-0.508c-0.241-0.049-0.483,0.078-0.58,0.304l-3.092,7.198l-3.209-7.204
			C6.535,11.209,6.293,11.09,6.053,11.136z"/>
		<path fill="#FFFFFF" d="M17.036,19.929v-8.286c0-0.286-0.231-0.518-0.518-0.518c-0.287,0-0.518,0.231-0.518,0.518v8.286
			c0,0.286,0.231,0.518,0.518,0.518C16.804,20.446,17.036,20.215,17.036,19.929z"/>
		<path fill="#FFFFFF" d="M20.143,19.929v-6.732l5.282,7.043c0.1,0.134,0.254,0.207,0.414,0.207c0.055,0,0.11-0.009,0.164-0.026
			c0.211-0.07,0.354-0.269,0.354-0.491v-8.286c0-0.286-0.231-0.518-0.518-0.518s-0.518,0.231-0.518,0.518v6.732l-5.282-7.043
			c-0.133-0.179-0.366-0.248-0.578-0.181c-0.211,0.07-0.354,0.269-0.354,0.491v8.286c0,0.286,0.232,0.518,0.518,0.518
			S20.143,20.215,20.143,19.929z"/>
	</g>
</g>
<rect x="4.536" y="23.036" fill="#FFFFFF" width="22.929" height="4.214"/>
</svg>
