<?xml version="1.0" encoding="utf-8"?>
<!-- Generator: Adobe Illustrator 16.0.0, SVG Export Plug-In . SVG Version: 6.00 Build 0)  -->
<!DOCTYPE svg PUBLIC "-//W3C//DTD SVG 1.1//EN" "http://www.w3.org/Graphics/SVG/1.1/DTD/svg11.dtd">
<svg version="1.1" id="Capa_1" xmlns="http://www.w3.org/2000/svg" xmlns:xlink="http://www.w3.org/1999/xlink" x="0px" y="0px"
	 width="32px" height="32px" viewBox="0 0 32 32" enable-background="new 0 0 32 32" xml:space="preserve">
<g>
	<path fill="#FFFFFF" d="M16.096,19.203c0-4.462,3.603-8.096,8.03-8.101c0.276,0,0.5-0.224,0.5-0.5s-0.224-0.5-0.5-0.5
		c-4.428-0.006-8.03-3.64-8.03-8.102c0-0.276-0.224-0.5-0.5-0.5s-0.5,0.224-0.5,0.5c0,4.461-3.604,8.096-8.032,8.102
		c-0.276,0-0.5,0.224-0.5,0.5s0.224,0.5,0.5,0.5c4.429,0.005,8.032,3.639,8.032,8.101c0,0.276,0.224,0.5,0.5,0.5
		S16.096,19.479,16.096,19.203z"/>
	<path fill="#FFFFFF" d="M12.13,18.703c-2.518-0.003-4.566-2.069-4.566-4.606c0-0.276-0.224-0.5-0.5-0.5s-0.5,0.224-0.5,0.5
		c0,2.537-2.048,4.603-4.565,4.606c-0.276,0-0.5,0.224-0.5,0.5s0.224,0.5,0.5,0.5c2.517,0.002,4.565,2.069,4.565,4.607
		c0,0.276,0.224,0.5,0.5,0.5s0.5-0.224,0.5-0.5c0-2.538,2.048-4.604,4.566-4.607c0.276,0,0.5-0.224,0.5-0.5
		S12.406,18.703,12.13,18.703z"/>
	<path fill="#FFFFFF" d="M30,22.647c-3.472-0.003-6.296-2.853-6.296-6.352c0-0.276-0.224-0.5-0.5-0.5s-0.5,0.224-0.5,0.5
		c0,3.499-2.826,6.349-6.299,6.352c-0.276,0-0.5,0.224-0.5,0.5s0.224,0.5,0.5,0.5c3.473,0.004,6.299,2.854,6.299,6.353
		c0,0.276,0.224,0.5,0.5,0.5s0.5-0.224,0.5-0.5c0-3.499,2.825-6.349,6.296-6.353c0.276,0,0.5-0.224,0.5-0.5S30.276,22.648,30,22.647
		z"/>
</g>
</svg>
