<?xml version="1.0" encoding="utf-8"?>
<!-- Generator: Adobe Illustrator 16.0.0, SVG Export Plug-In . SVG Version: 6.00 Build 0)  -->
<!DOCTYPE svg PUBLIC "-//W3C//DTD SVG 1.1//EN" "http://www.w3.org/Graphics/SVG/1.1/DTD/svg11.dtd">
<svg version="1.1" id="Capa_1" xmlns="http://www.w3.org/2000/svg" xmlns:xlink="http://www.w3.org/1999/xlink" x="0px" y="0px"
	 width="18px" height="18px" viewBox="0 0 18 18" enable-background="new 0 0 18 18" xml:space="preserve">
<g>
	<g>
		
			<rect x="1" y="4.886" fill="none" stroke="#222221" stroke-linecap="round" stroke-linejoin="round" stroke-miterlimit="10" width="2.539" height="2.536"/>
		
			<rect x="1" y="9.678" fill="none" stroke="#222221" stroke-linecap="round" stroke-linejoin="round" stroke-miterlimit="10" width="2.539" height="2.531"/>
		
			<rect x="1" y="14.464" fill="none" stroke="#222221" stroke-linecap="round" stroke-linejoin="round" stroke-miterlimit="10" width="2.539" height="2.536"/>
		
			<rect x="5.79" y="9.678" fill="none" stroke="#222221" stroke-linecap="round" stroke-linejoin="round" stroke-miterlimit="10" width="2.532" height="2.531"/>
		
			<rect x="5.79" y="14.464" fill="none" stroke="#222221" stroke-linecap="round" stroke-linejoin="round" stroke-miterlimit="10" width="2.532" height="2.536"/>
		
			<rect x="10.575" y="14.464" fill="none" stroke="#222221" stroke-linecap="round" stroke-linejoin="round" stroke-miterlimit="10" width="2.539" height="2.536"/>
		<path fill="none" stroke="#222221" stroke-linecap="round" stroke-linejoin="round" stroke-miterlimit="10" d="M12.273,10.443
			c-0.594,0-1.171-0.112-1.698-0.316v2.082h2.539v-1.844C12.839,10.416,12.562,10.443,12.273,10.443z"/>
		<path fill="none" stroke="#222221" stroke-linecap="round" stroke-linejoin="round" stroke-miterlimit="10" d="M7.555,5.725
			c0-0.287,0.031-0.565,0.079-0.839H5.79v2.536h2.082C7.668,6.895,7.555,6.318,7.555,5.725z"/>
	</g>
	<path fill="none" stroke="#222221" stroke-miterlimit="10" d="M17,5.725c0,2.606-2.116,4.719-4.727,4.719
		c-2.607,0-4.719-2.112-4.719-4.719C7.555,3.115,9.666,1,12.273,1C14.884,1,17,3.115,17,5.725z"/>
	<g>
		
			<line fill="none" stroke="#222221" stroke-linecap="round" stroke-linejoin="round" stroke-miterlimit="10" x1="12.273" y1="3.016" x2="12.273" y2="8.428"/>
		
			<line fill="none" stroke="#222221" stroke-linecap="round" stroke-linejoin="round" stroke-miterlimit="10" x1="14.983" y1="5.725" x2="9.571" y2="5.725"/>
	</g>
</g>
</svg>
