<?xml version="1.0" encoding="utf-8"?>
<!-- Generator: Adobe Illustrator 16.0.0, SVG Export Plug-In . SVG Version: 6.00 Build 0)  -->
<!DOCTYPE svg PUBLIC "-//W3C//DTD SVG 1.1//EN" "http://www.w3.org/Graphics/SVG/1.1/DTD/svg11.dtd">
<svg version="1.1" id="Capa_1" xmlns="http://www.w3.org/2000/svg" xmlns:xlink="http://www.w3.org/1999/xlink" x="0px" y="0px"
	 width="32px" height="32px" viewBox="0 0 32 32" enable-background="new 0 0 32 32" xml:space="preserve">
<g>
	<path fill="#FFFFFF" d="M27.857,6.297h-0.222v17.182c0,2.291-1.829,4.155-4.075,4.155H6.296v0.142C6.296,29.001,7.258,30,8.44,30
		h19.417C29.039,30,30,29.001,30,27.776V8.522C30,7.295,29.039,6.297,27.857,6.297z"/>
	<path fill="#FFFFFF" d="M23.56,25.703c1.182,0,2.144-0.998,2.144-2.224V6.297V4.226C25.704,2.999,24.742,2,23.56,2H4.143
		C2.961,2,2,2.999,2,4.226v19.253c0,1.226,0.961,2.224,2.143,2.224h2.153H23.56z M19.736,15.662c1.093,0,1.98,0.886,1.98,1.98
		c0,1.093-0.888,1.98-1.98,1.98c-1.095,0-1.981-0.887-1.981-1.98C17.755,16.547,18.642,15.662,19.736,15.662z M13.49,15.662
		c1.094-0.001,1.981,0.886,1.981,1.981c0,1.091-0.887,1.978-1.981,1.978c-1.091,0-1.979-0.887-1.979-1.978
		C11.51,16.547,12.398,15.662,13.49,15.662z M5.261,17.643c0-1.094,0.887-1.98,1.98-1.98c1.095,0,1.981,0.887,1.981,1.98
		c0,1.093-0.886,1.98-1.981,1.98C6.148,19.623,5.261,18.736,5.261,17.643z"/>
</g>
</svg>
