<?xml version="1.0" encoding="utf-8"?>
<!-- Generator: Adobe Illustrator 16.0.0, SVG Export Plug-In . SVG Version: 6.00 Build 0)  -->
<!DOCTYPE svg PUBLIC "-//W3C//DTD SVG 1.1//EN" "http://www.w3.org/Graphics/SVG/1.1/DTD/svg11.dtd">
<svg version="1.1" id="Capa_1" xmlns="http://www.w3.org/2000/svg" xmlns:xlink="http://www.w3.org/1999/xlink" x="0px" y="0px"
	 width="32px" height="32px" viewBox="0 0 32 32" enable-background="new 0 0 32 32" xml:space="preserve">
<g>
	<path fill="#FFFFFF" d="M8.384,18.637H3.017c-0.286,0-0.517,0.231-0.517,0.518c0,0.287,0.231,0.518,0.517,0.518h5.367
		c0.286,0,0.517-0.231,0.517-0.518C8.901,18.869,8.669,18.637,8.384,18.637z"/>
	<path fill="#FFFFFF" d="M3.208,15.634l5.028,1.498c0.049,0.014,0.099,0.021,0.147,0.021c0.223,0,0.429-0.146,0.496-0.37
		c0.081-0.274-0.075-0.562-0.348-0.644l-5.028-1.497c-0.276-0.082-0.562,0.075-0.643,0.349C2.78,15.264,2.935,15.553,3.208,15.634z"
		/>
	<path fill="#FFFFFF" d="M8.253,21.071l-5.028,1.31c-0.275,0.071-0.442,0.354-0.37,0.631c0.061,0.233,0.271,0.388,0.501,0.388
		c0.042,0,0.086-0.005,0.13-0.018l5.028-1.309c0.275-0.072,0.442-0.354,0.371-0.631C8.813,21.166,8.532,20.998,8.253,21.071z"/>
	<path fill="#FFFFFF" d="M28.809,5.352L18.016,1.559c-0.54-0.19-1.127,0.095-1.318,0.635c-0.188,0.539,0.094,1.131,0.633,1.32
		l0.653,0.23l-1.687,4.812c-0.797,2.284,0.152,4.763,2.14,5.969l-0.695,1.985h-5.787c-0.571,0-1.034,0.464-1.034,1.036v2.827
		c0,0.571,0.462,1.036,1.034,1.036l8.468,2l2.277,6.404c0.147,0.413,0.537,0.688,0.974,0.688h2.528c0.007,0,0.014,0,0.02,0
		c0.571,0,1.034-0.463,1.034-1.036c0-0.139-0.026-0.271-0.076-0.392l-2.22-11.719c-0.093-0.49-0.519-0.844-1.016-0.844h-4.013
		l0.458-1.309c0.216,0.028,0.432,0.054,0.651,0.054c2.128,0,4.035-1.351,4.748-3.367l1.682-4.812l0.653,0.229
		c0.113,0.04,0.229,0.059,0.342,0.059c0.427,0,0.826-0.267,0.975-0.693C29.63,6.132,29.348,5.542,28.809,5.352z M24.814,11.544
		c-0.565,1.601-2.082,2.675-3.772,2.675c-0.449,0-0.895-0.076-1.324-0.227c-2.075-0.728-3.171-3.014-2.445-5.094l1.688-4.812
		l7.535,2.648L24.814,11.544z"/>
</g>
</svg>
