<?xml version="1.0" encoding="utf-8"?>
<!-- Generator: Adobe Illustrator 16.0.0, SVG Export Plug-In . SVG Version: 6.00 Build 0)  -->
<!DOCTYPE svg PUBLIC "-//W3C//DTD SVG 1.1//EN" "http://www.w3.org/Graphics/SVG/1.1/DTD/svg11.dtd">
<svg version="1.1" id="Capa_1" xmlns="http://www.w3.org/2000/svg" xmlns:xlink="http://www.w3.org/1999/xlink" x="0px" y="0px"
	 width="32px" height="32px" viewBox="0 0 32 32" enable-background="new 0 0 32 32" xml:space="preserve">
<g>
	<path fill="#FFFFFF" d="M16.138,9.207c-1.879,0.73-3.387,2.228-4.136,4.108c-0.103,0.257,0.023,0.547,0.279,0.649
		C12.342,13.989,12.405,14,12.466,14c0.199,0,0.387-0.119,0.464-0.315c0.656-1.647,1.924-2.907,3.569-3.546
		c0.257-0.1,0.385-0.39,0.285-0.647C16.685,9.234,16.396,9.106,16.138,9.207z"/>
	<path fill="#FFFFFF" d="M8.724,12.491c0-0.276-0.224-0.5-0.5-0.5c-1.469,0-2.664,1.195-2.664,2.665c0,0.276,0.224,0.5,0.5,0.5
		s0.5-0.224,0.5-0.5c0-0.918,0.747-1.665,1.664-1.665C8.5,12.991,8.724,12.768,8.724,12.491z"/>
	<g>
		<path fill="#FFFFFF" d="M8.224,19.655c0.165,0,0.329-0.021,0.494-0.038l1.776-1.776c-0.135-0.593-0.215-1.207-0.215-1.841
			c0-4.687,3.812-8.499,8.499-8.499c0.635,0,1.252,0.076,1.848,0.208l1.611-1.611c-1.085-0.38-2.246-0.598-3.458-0.598
			c-3.584,0-6.752,1.808-8.647,4.558C9.526,9.802,8.886,9.653,8.224,9.653c-2.757,0-5.001,2.244-5.001,5.002
			C3.223,17.412,5.467,19.655,8.224,19.655z M8.224,10.653c0.474,0,0.936,0.093,1.376,0.261C8.761,12.422,8.279,14.155,8.279,16
			c0,0.908,0.128,1.785,0.346,2.626c-0.134,0.014-0.267,0.029-0.401,0.029c-2.206,0-4.001-1.794-4.001-4
			C4.223,12.449,6.018,10.653,8.224,10.653z"/>
		<path fill="#FFFFFF" d="M25.083,10.322c1.358,1.507,2.193,3.495,2.193,5.678c0,4.687-3.812,8.499-8.499,8.499
			c-2.185,0-4.165-0.842-5.669-2.202l-1.421,1.421c1.868,1.723,4.354,2.781,7.09,2.781c5.789,0,10.499-4.71,10.499-10.499
			c0-2.735-1.06-5.221-2.78-7.092L25.083,10.322z"/>
	</g>
	
		<rect x="15.5" y="-1.522" transform="matrix(0.7071 0.7071 -0.7071 0.7071 15.9082 -6.6655)" fill="#FFFFFF" width="1" height="34.784"/>
</g>
</svg>
