<?xml version="1.0" encoding="utf-8"?>
<!-- Generator: Adobe Illustrator 16.0.0, SVG Export Plug-In . SVG Version: 6.00 Build 0)  -->
<!DOCTYPE svg PUBLIC "-//W3C//DTD SVG 1.1//EN" "http://www.w3.org/Graphics/SVG/1.1/DTD/svg11.dtd">
<svg version="1.1" id="Capa_1" xmlns="http://www.w3.org/2000/svg" xmlns:xlink="http://www.w3.org/1999/xlink" x="0px" y="0px"
	 width="32px" height="32px" viewBox="0 0 32 32" enable-background="new 0 0 32 32" xml:space="preserve">
<g>
	<polygon fill="#FFFFFF" points="30,15.45 27.065,5 24.463,5 27.324,15.45 	"/>
	<path fill="#FFFFFF" d="M18.187,16.55h2.11v-1.1h-2.152h-3.134H9.654c-0.132-4.296-1.787-7.698-3.82-7.7C3.714,7.752,2,11.447,2,16
		c0,4.557,1.714,8.249,3.834,8.25c2.034-0.001,3.688-3.401,3.82-7.7h5.357H18.187z M5.834,20.949c-1.058,0-1.917-2.216-1.917-4.95
		s0.858-4.951,1.917-4.951c0.987,0,1.788,1.929,1.896,4.402H5.833v1.1h1.897C7.622,19.021,6.82,20.949,5.834,20.949z"/>
	<polygon fill="#FFFFFF" points="24.463,27 27.065,27 30,16.55 27.324,16.55 	"/>
	<path fill="#FFFFFF" d="M26.321,16c0-0.013,0.007-0.025,0.007-0.038l-2.96-10.817c-0.013-0.048-0.01-0.097-0.01-0.145h-5.486
		l-2.259,8.25h2.692c0.376-2.561,1.387-4.399,2.579-4.401c1.363,0.002,2.488,2.403,2.699,5.541v2.119
		c-0.211,3.14-1.336,5.54-2.699,5.541c-1.013,0-1.895-1.33-2.369-3.301h-2.902L17.872,27h5.486c0-0.048-0.003-0.097,0.01-0.146
		l2.96-10.816C26.328,16.025,26.321,16.013,26.321,16z"/>
</g>
</svg>
