<?xml version="1.0" encoding="utf-8"?>
<!-- Generator: Adobe Illustrator 16.0.0, SVG Export Plug-In . SVG Version: 6.00 Build 0)  -->
<!DOCTYPE svg PUBLIC "-//W3C//DTD SVG 1.1//EN" "http://www.w3.org/Graphics/SVG/1.1/DTD/svg11.dtd">
<svg version="1.1" id="Capa_1" xmlns="http://www.w3.org/2000/svg" xmlns:xlink="http://www.w3.org/1999/xlink" x="0px" y="0px"
	 width="32px" height="32px" viewBox="0 0 32 32" enable-background="new 0 0 32 32" xml:space="preserve">
<g>
	<rect x="15.481" y="22.285" fill="#FFFFFF" width="1.036" height="4.599"/>
	<polygon fill="#FFFFFF" points="21.191,26.771 22.201,27 23.236,22.399 22.228,22.169 	"/>
	<polygon fill="#FFFFFF" points="8.763,22.399 9.799,27 10.808,26.771 9.772,22.169 	"/>
	<path fill="#FFFFFF" d="M30.229,10.621L25.418,5.34C25.222,5.124,24.944,5,24.653,5h-9.507c-0.288,0-0.563,0.122-0.759,0.332
		l-5.683,5.072l-6.454,1.851c-0.444,0.126-0.751,0.535-0.751,1v4.433c0,0.572,0.463,1.039,1.035,1.039h1.926
		c0.573,0,1.036-0.467,1.036-1.039c0-1.866,1.511-3.383,3.368-3.383c1.856,0,3.368,1.517,3.368,3.383
		c0,0.572,0.463,1.039,1.035,1.039h6.838c0.572,0,1.035-0.467,1.035-1.039c0-1.866,1.512-3.383,3.368-3.383
		c1.857,0,3.368,1.517,3.368,3.383c0,0.572,0.464,1.039,1.036,1.039h0.55c0.572,0,1.036-0.467,1.036-1.039v-6.363
		C30.5,11.064,30.402,10.814,30.229,10.621z M19.429,10.483h-8.87l4.46-4.443h4.41V10.483z M20.905,10.483V6.04h3.788l3.697,4.443
		H20.905z"/>
</g>
</svg>
