<?xml version="1.0" encoding="utf-8"?>
<!-- Generator: Adobe Illustrator 16.0.0, SVG Export Plug-In . SVG Version: 6.00 Build 0)  -->
<!DOCTYPE svg PUBLIC "-//W3C//DTD SVG 1.1//EN" "http://www.w3.org/Graphics/SVG/1.1/DTD/svg11.dtd">
<svg version="1.1" id="Capa_1" xmlns="http://www.w3.org/2000/svg" xmlns:xlink="http://www.w3.org/1999/xlink" x="0px" y="0px"
	 width="12px" height="12px" viewBox="0 0 12 12" enable-background="new 0 0 12 12" xml:space="preserve">
<path fill="#5A8CA4" d="M8.948,4.896C8.876,4.763,8.741,4.681,8.595,4.681H7.271V0.924c0-0.19-0.121-0.357-0.296-0.407
	C6.797,0.464,6.612,0.542,6.519,0.705l-3.46,5.972C2.983,6.808,2.981,6.97,3.052,7.104c0.072,0.133,0.207,0.215,0.353,0.215h1.324
	v3.758c0,0.19,0.121,0.357,0.296,0.407C5.062,11.495,5.099,11.5,5.134,11.5c0.14,0,0.272-0.075,0.347-0.204l3.46-5.974
	C9.018,5.191,9.019,5.029,8.948,4.896z"/>
</svg>
