<?xml version="1.0" encoding="utf-8"?>
<!-- Generator: Adobe Illustrator 16.0.0, SVG Export Plug-In . SVG Version: 6.00 Build 0)  -->
<!DOCTYPE svg PUBLIC "-//W3C//DTD SVG 1.1//EN" "http://www.w3.org/Graphics/SVG/1.1/DTD/svg11.dtd">
<svg version="1.1" id="Capa_1" xmlns="http://www.w3.org/2000/svg" xmlns:xlink="http://www.w3.org/1999/xlink" x="0px" y="0px"
	 width="12px" height="12px" viewBox="0 0 12 12" enable-background="new 0 0 12 12" xml:space="preserve">
<path fill="#5A8CA4" d="M11.213,4.051l-0.62-0.61c-0.168-0.164-0.438-0.164-0.605,0.001L7.342,6.051
	c-0.381,0.376-1.047,0.378-1.431,0C5.723,5.864,5.618,5.616,5.617,5.35c0-0.267,0.106-0.519,0.298-0.708l2.646-2.608
	c0.081-0.08,0.125-0.187,0.125-0.299s-0.045-0.22-0.125-0.299L7.861,0.744C7.802,0.687,7.578,0.5,7.128,0.5
	c-0.94,0-2.231,0.802-3.835,2.383c-1.05,1.036-1.05,2.647-0.575,3.888L1.03,8.436c-0.706,0.7-0.707,1.839-0.001,2.54
	c0.344,0.338,0.8,0.524,1.287,0.524c0.486,0,0.942-0.186,1.286-0.525l1.735-1.714C5.812,9.419,6.311,9.5,6.795,9.5
	c0.962,0,1.788-0.313,2.388-0.906C12.338,5.479,11.428,4.264,11.213,4.051z"/>
</svg>
