<?xml version="1.0" encoding="utf-8"?>
<!-- Generator: Adobe Illustrator 16.0.0, SVG Export Plug-In . SVG Version: 6.00 Build 0)  -->
<!DOCTYPE svg PUBLIC "-//W3C//DTD SVG 1.1//EN" "http://www.w3.org/Graphics/SVG/1.1/DTD/svg11.dtd">
<svg version="1.1" id="Capa_1" xmlns="http://www.w3.org/2000/svg" xmlns:xlink="http://www.w3.org/1999/xlink" x="0px" y="0px"
	 width="12px" height="12px" viewBox="0 0 12 12" enable-background="new 0 0 12 12" xml:space="preserve">
<g>
	<path fill="#5A8CA4" d="M4.555,5.877l2.274,0.192l0.253-0.735C6.22,4.72,5.811,3.509,6.162,2.388l0.459-1.456L6.586,0.92
		C6.354,0.829,6.23,0.544,6.312,0.284c0.08-0.259,0.335-0.398,0.57-0.306l0.449,0.176c0.003,0,0.004,0,0.007,0l1.805,0.707
		L11.2,1.665c0.233,0.091,0.356,0.375,0.274,0.636c-0.063,0.206-0.237,0.333-0.422,0.333c-0.048,0-0.1-0.008-0.149-0.027
		l-0.033-0.013l-0.457,1.456C10.097,5.055,9.242,5.73,8.286,5.73c-0.123,0-0.245-0.012-0.367-0.034l-0.172,0.45l1.604,0.135
		c0.203,0.017,0.37,0.182,0.407,0.405l0.732,4.771c0.024,0.146-0.01,0.297-0.095,0.412c-0.085,0.114-0.211,0.181-0.345,0.181H9.039
		c-0.189,0-0.357-0.133-0.422-0.332L7.899,9.474L4.58,9.958C4.45,9.978,4.322,9.933,4.225,9.838
		C4.129,9.743,4.074,9.606,4.074,9.463V6.375c0-0.139,0.052-0.271,0.144-0.366C4.309,5.915,4.428,5.871,4.555,5.877z"/>
	<path fill="#5A8CA4" d="M0.948,7.438h2.146c0.247,0,0.448,0.223,0.448,0.5c0,0.276-0.201,0.499-0.448,0.499H0.948
		C0.7,8.437,0.5,8.213,0.5,7.938C0.5,7.661,0.7,7.438,0.948,7.438z"/>
	<path fill="#5A8CA4" d="M3.094,6.875c-0.042,0-0.085-0.007-0.128-0.021L0.955,6.185C0.717,6.106,0.583,5.828,0.653,5.563
		C0.724,5.3,0.972,5.149,1.211,5.228l2.011,0.668c0.237,0.079,0.372,0.357,0.301,0.622C3.466,6.734,3.287,6.875,3.094,6.875z"/>
	<path fill="#5A8CA4" d="M0.97,9.561l2.011-0.581c0.24-0.072,0.484,0.09,0.545,0.358c0.063,0.267-0.08,0.54-0.32,0.608l-2.011,0.582
		c-0.038,0.011-0.075,0.016-0.112,0.016c-0.199,0-0.382-0.149-0.434-0.374C0.587,9.902,0.73,9.63,0.97,9.561z"/>
</g>
</svg>
