<?xml version="1.0" encoding="utf-8"?>
<!-- Generator: Adobe Illustrator 16.0.0, SVG Export Plug-In . SVG Version: 6.00 Build 0)  -->
<!DOCTYPE svg PUBLIC "-//W3C//DTD SVG 1.1//EN" "http://www.w3.org/Graphics/SVG/1.1/DTD/svg11.dtd">
<svg version="1.1" id="Capa_1" xmlns="http://www.w3.org/2000/svg" xmlns:xlink="http://www.w3.org/1999/xlink" x="0px" y="0px"
	 width="12px" height="12px" viewBox="0 0 12 12" enable-background="new 0 0 12 12" xml:space="preserve">
<path fill="#5A8CA4" d="M11.467,4.782L9.644,1.209c-0.064-0.153-0.206-0.25-0.362-0.25H4.907c-0.168,0-0.317,0.112-0.373,0.28
	L3.143,4.604L0.792,5.286C0.62,5.335,0.5,5.501,0.5,5.691v3.674c0,0.231,0.177,0.419,0.395,0.419h0.822
	c0.183,0.723,0.821,1.257,1.581,1.257s1.398-0.534,1.581-1.257h2.433c0.182,0.723,0.821,1.257,1.579,1.257
	c0.759,0,1.399-0.534,1.581-1.257h0.634c0.218,0,0.395-0.188,0.395-0.419V4.952C11.5,4.894,11.489,4.836,11.467,4.782z M8.006,3.35
	l1.175,2.001v2.042H5.036V6.29l1.25-2.939H8.006z"/>
</svg>
