<?xml version="1.0" encoding="utf-8"?>
<!-- Generator: Adobe Illustrator 16.0.0, SVG Export Plug-In . SVG Version: 6.00 Build 0)  -->
<!DOCTYPE svg PUBLIC "-//W3C//DTD SVG 1.1//EN" "http://www.w3.org/Graphics/SVG/1.1/DTD/svg11.dtd">
<svg version="1.1" id="Capa_1" xmlns="http://www.w3.org/2000/svg" xmlns:xlink="http://www.w3.org/1999/xlink" x="0px" y="0px"
	 width="32px" height="32px" viewBox="0 0 32 32" enable-background="new 0 0 32 32" xml:space="preserve">
<path fill="#FFFFFF" d="M25.279,8.127h-3.503h-0.055V5.699c0-1.763-1.404-3.199-3.132-3.199H6.631C4.904,2.5,3.5,3.936,3.5,5.699
	v14.409c0,1.764,1.404,3.198,3.131,3.198h3.826v2.987c0,1.767,1.446,3.207,3.222,3.207h11.6c1.775,0,3.221-1.44,3.221-3.207V11.333
	C28.5,9.566,27.054,8.127,25.279,8.127z M5.438,20.107V5.699c0-0.701,0.536-1.27,1.193-1.27H18.59c0.658,0,1.193,0.569,1.193,1.27
	v2.429h-0.73H13.68c-1.776,0-3.222,1.438-3.222,3.206v9.235v0.809H6.631C5.974,21.377,5.438,20.808,5.438,20.107z"/>
</svg>
