<?xml version="1.0" encoding="utf-8"?>
<!-- Generator: Adobe Illustrator 16.0.0, SVG Export Plug-In . SVG Version: 6.00 Build 0)  -->
<!DOCTYPE svg PUBLIC "-//W3C//DTD SVG 1.1//EN" "http://www.w3.org/Graphics/SVG/1.1/DTD/svg11.dtd">
<svg version="1.1" id="Capa_1" xmlns="http://www.w3.org/2000/svg" xmlns:xlink="http://www.w3.org/1999/xlink" x="0px" y="0px"
	 width="32px" height="32px" viewBox="0 0 32 32" enable-background="new 0 0 32 32" xml:space="preserve">
<path fill="#FFFFFF" d="M23.301,2H8.7C6.385,2,4.501,3.885,4.501,6.202v19.596C4.501,28.115,6.385,30,8.7,30h14.601
	c2.315,0,4.199-1.885,4.199-4.202V6.202C27.5,3.885,25.616,2,23.301,2z M21.168,15.998l-4.459,4.457
	c-0.094,0.094-0.204,0.167-0.327,0.218C16.26,20.724,16.13,20.75,16,20.75s-0.26-0.026-0.382-0.077
	c-0.123-0.051-0.233-0.124-0.327-0.217l-4.459-4.458c-0.391-0.391-0.391-1.023,0-1.414s1.023-0.391,1.414,0L15,17.336V12.25
	c0-0.553,0.447-1,1-1s1,0.447,1,1v5.086l2.754-2.752c0.391-0.391,1.023-0.391,1.414,0C21.559,14.975,21.559,15.607,21.168,15.998z"
	/>
</svg>
