<?xml version="1.0" encoding="utf-8"?>
<!-- Generator: Adobe Illustrator 16.0.0, SVG Export Plug-In . SVG Version: 6.00 Build 0)  -->
<!DOCTYPE svg PUBLIC "-//W3C//DTD SVG 1.1//EN" "http://www.w3.org/Graphics/SVG/1.1/DTD/svg11.dtd">
<svg version="1.1" id="Capa_1" xmlns="http://www.w3.org/2000/svg" xmlns:xlink="http://www.w3.org/1999/xlink" x="0px" y="0px"
	 width="32px" height="32px" viewBox="0 0 32 32" enable-background="new 0 0 32 32" xml:space="preserve">
<g>
	<polygon fill="#FFFFFF" points="16.833,7.468 6.012,18.29 13.714,25.99 24.532,15.169 23.317,13.954 14.536,22.733 13.1,21.297 
		21.881,12.518 19.902,10.539 11.121,19.318 9.687,17.882 18.467,9.103 	"/>
	<path fill="#FFFFFF" d="M28.203,10.061l-6.265-6.263c-0.396-0.397-1.039-0.397-1.435,0l-2.235,2.235l7.698,7.701l2.236-2.237
		C28.6,11.1,28.6,10.457,28.203,10.061z"/>
	<path fill="#FFFFFF" d="M4.576,19.725l-0.199,0.2c-0.169,0.169-0.273,0.394-0.294,0.632l-0.58,6.843
		c-0.025,0.298,0.083,0.591,0.293,0.803c0.192,0.192,0.45,0.298,0.718,0.298c0.029,0,0.057-0.001,0.085-0.003l6.843-0.575
		c0.239-0.02,0.463-0.125,0.633-0.294l0.203-0.202L4.576,19.725z"/>
</g>
</svg>
