<?xml version="1.0" encoding="utf-8"?>
<!-- Generator: Adobe Illustrator 16.0.0, SVG Export Plug-In . SVG Version: 6.00 Build 0)  -->
<!DOCTYPE svg PUBLIC "-//W3C//DTD SVG 1.1//EN" "http://www.w3.org/Graphics/SVG/1.1/DTD/svg11.dtd">
<svg version="1.1" id="Capa_1" xmlns="http://www.w3.org/2000/svg" xmlns:xlink="http://www.w3.org/1999/xlink" x="0px" y="0px"
	 width="32px" height="32px" viewBox="0 0 32 32" enable-background="new 0 0 32 32" xml:space="preserve">
<path fill="#FFFFFF" d="M26.649,2H5.352C3.503,2,2,3.543,2,5.44v21.12C2,28.458,3.503,30,5.352,30h21.298
	C28.498,30,30,28.458,30,26.561V5.44C30,3.543,28.498,2,26.649,2z M22.724,13.702L16,20.42l-6.724-6.718
	c-0.391-0.391-0.391-1.024,0-1.415c0.391-0.391,1.024-0.391,1.415,0L16,17.593l5.31-5.306c0.391-0.39,1.024-0.391,1.415,0
	C23.114,12.678,23.114,13.312,22.724,13.702z"/>
</svg>
