<?xml version="1.0" encoding="utf-8"?>
<!-- Generator: Adobe Illustrator 16.0.0, SVG Export Plug-In . SVG Version: 6.00 Build 0)  -->
<!DOCTYPE svg PUBLIC "-//W3C//DTD SVG 1.1//EN" "http://www.w3.org/Graphics/SVG/1.1/DTD/svg11.dtd">
<svg version="1.1" id="Capa_1" xmlns="http://www.w3.org/2000/svg" xmlns:xlink="http://www.w3.org/1999/xlink" x="0px" y="0px"
	 width="16px" height="16px" viewBox="0 0 16 16" enable-background="new 0 0 16 16" xml:space="preserve">
<g>
	<path fill="#FFFFFF" d="M4.238,5.567c-1.182,0-2.165,0.858-2.374,1.988H0v0.889h1.864c0.209,1.13,1.192,1.988,2.374,1.988
		s2.166-0.858,2.375-1.988H16V7.556H6.613C6.404,6.425,5.42,5.567,4.238,5.567z"/>
	<path fill="#FFFFFF" d="M10.374,1.988C10.165,0.858,9.183,0,8,0S5.835,0.858,5.627,1.988H0v0.889h5.626
		C5.835,4.007,6.818,4.866,8,4.866s2.165-0.859,2.373-1.989H16V1.988H10.374z"/>
	<path fill="#FFFFFF" d="M11.763,11.136c-1.182,0-2.166,0.858-2.375,1.987H0v0.889h9.387C9.597,15.142,10.581,16,11.763,16
		s2.165-0.858,2.374-1.988H16v-0.889h-1.864C13.928,11.994,12.945,11.136,11.763,11.136z"/>
</g>
</svg>
