<?xml version="1.0" encoding="utf-8"?>
<!-- Generator: Adobe Illustrator 16.0.0, SVG Export Plug-In . SVG Version: 6.00 Build 0)  -->
<!DOCTYPE svg PUBLIC "-//W3C//DTD SVG 1.1//EN" "http://www.w3.org/Graphics/SVG/1.1/DTD/svg11.dtd">
<svg version="1.1" id="Capa_1" xmlns="http://www.w3.org/2000/svg" xmlns:xlink="http://www.w3.org/1999/xlink" x="0px" y="0px"
	 width="32px" height="32px" viewBox="0 0 32 32" enable-background="new 0 0 32 32" xml:space="preserve">
<g>
	<path fill="#FFFFFF" d="M23.765,14.723c-3.438,0-6.236,2.867-6.236,6.39s2.797,6.388,6.236,6.388c3.439,0,6.236-2.865,6.236-6.388
		S27.204,14.723,23.765,14.723z M28.04,21.809l-4.276,4.383c-0.375,0.385-0.981,0.385-1.356,0c-0.375-0.385-0.375-1.006,0-1.389
		l2.639-2.708h-4.879c-0.53,0-0.959-0.439-0.959-0.982s0.429-0.984,0.959-0.984h4.879l-2.639-2.706c-0.375-0.384-0.375-1.006,0-1.39
		c0.375-0.385,0.981-0.385,1.356,0l4.275,4.383c0.09,0.092,0.16,0.201,0.209,0.322c0.049,0.12,0.073,0.249,0.073,0.375
		c0,0.128-0.024,0.254-0.073,0.376C28.199,21.609,28.129,21.717,28.04,21.809z"/>
	<path fill="#FFFFFF" d="M5.562,20.062c-0.824,0-1.494-0.663-1.494-1.478V9.725l9.794,4.711l9.812-4.528v2.775
		c0.03-0.001,0.06-0.005,0.09-0.005c0.683,0,1.343,0.094,1.978,0.251V8.024c0-1.943-1.599-3.524-3.562-3.524H5.562
		C3.599,4.5,2,6.081,2,8.024v10.56c0,1.941,1.598,3.522,3.561,3.522h9.963c-0.038-0.327-0.063-0.657-0.063-0.994
		c0-0.356,0.029-0.706,0.072-1.051H5.562z M5.562,6.545h16.62c0.701,0,1.287,0.482,1.446,1.128l-9.747,4.499L4.169,7.5
		C4.384,6.943,4.925,6.545,5.562,6.545z"/>
</g>
</svg>
