<?xml version="1.0" encoding="utf-8"?>
<!-- Generator: Adobe Illustrator 16.0.0, SVG Export Plug-In . SVG Version: 6.00 Build 0)  -->
<!DOCTYPE svg PUBLIC "-//W3C//DTD SVG 1.1//EN" "http://www.w3.org/Graphics/SVG/1.1/DTD/svg11.dtd">
<svg version="1.1" id="Capa_1" xmlns="http://www.w3.org/2000/svg" xmlns:xlink="http://www.w3.org/1999/xlink" x="0px" y="0px"
	 width="32px" height="32px" viewBox="0 0 32 32" enable-background="new 0 0 32 32" xml:space="preserve">
<g>
	<path fill="#FFFFFF" d="M25.5,8.877c0-1.637-1.299-2.966-2.904-2.966H9.404C7.8,5.911,6.5,7.24,6.5,8.877H25.5z"/>
	<path fill="#FFFFFF" d="M19.189,3.982c0-0.817-0.649-1.482-1.453-1.482h-3.471c-0.804,0-1.453,0.665-1.453,1.482H19.189z"/>
	<path fill="#FFFFFF" d="M7.952,10.806v15.729c0,1.636,1.299,2.965,2.903,2.965h10.29c1.604,0,2.903-1.329,2.903-2.965V10.806H7.952
		z M12.703,26.535h-1.842V12.734h1.842V26.535z M16.921,26.535H15.08V12.734h1.842V26.535z M21.14,26.535h-1.842V12.734h1.842
		V26.535z"/>
</g>
</svg>
