<?xml version="1.0" encoding="utf-8"?>
<!-- Generator: Adobe Illustrator 16.0.0, SVG Export Plug-In . SVG Version: 6.00 Build 0)  -->
<!DOCTYPE svg PUBLIC "-//W3C//DTD SVG 1.1//EN" "http://www.w3.org/Graphics/SVG/1.1/DTD/svg11.dtd">
<svg version="1.1" id="Capa_1" xmlns="http://www.w3.org/2000/svg" xmlns:xlink="http://www.w3.org/1999/xlink" x="0px" y="0px"
	 width="32px" height="32px" viewBox="0 0 32 32" enable-background="new 0 0 32 32" xml:space="preserve">
<g>
	<path fill="#FFFFFF" d="M23.297,4c1.214,0,2.201,0.986,2.201,2.199v19.602c0,1.213-0.987,2.199-2.201,2.199H8.704
		c-1.214,0-2.202-0.986-2.202-2.199V6.199C6.502,4.986,7.49,4,8.704,4H23.297 M23.297,2H8.704C6.387,2,4.502,3.885,4.502,6.199
		v19.602C4.502,28.115,6.387,30,8.704,30h14.593c2.317,0,4.201-1.885,4.201-4.199V6.199C27.498,3.885,25.614,2,23.297,2L23.297,2z"
		/>
</g>
<g>
	<line fill="#FFFFFF" x1="10" y1="10" x2="22" y2="10"/>
	<rect x="10" y="9" fill="#FFFFFF" width="12" height="2"/>
</g>
<g>
	<line fill="#FFFFFF" x1="10" y1="16" x2="22" y2="16"/>
	<rect x="10" y="15" fill="#FFFFFF" width="12" height="2"/>
</g>
<g>
	<line fill="#FFFFFF" x1="10" y1="22" x2="22" y2="22"/>
	<rect x="10" y="21" fill="#FFFFFF" width="12" height="2"/>
</g>
</svg>
