<?xml version="1.0" encoding="utf-8"?>
<!-- Generator: Adobe Illustrator 16.0.0, SVG Export Plug-In . SVG Version: 6.00 Build 0)  -->
<!DOCTYPE svg PUBLIC "-//W3C//DTD SVG 1.1//EN" "http://www.w3.org/Graphics/SVG/1.1/DTD/svg11.dtd">
<svg version="1.1" id="Capa_1" xmlns="http://www.w3.org/2000/svg" xmlns:xlink="http://www.w3.org/1999/xlink" x="0px" y="0px"
	 width="32px" height="32px" viewBox="0 0 32 32" enable-background="new 0 0 32 32" xml:space="preserve">
<path fill="#FFFFFF" d="M30.009,11.065h-1.965c-0.13,0-0.255,0.052-0.347,0.145l-0.598,0.6l-2.808-5.477
	C23.994,5.761,23.468,5,22.34,5H9.661C8.533,5,8.007,5.761,7.708,6.336l-2.807,5.476L4.303,11.21
	c-0.092-0.093-0.217-0.145-0.347-0.145H1.991c-0.271,0-0.491,0.221-0.491,0.494v0.988c0,0.273,0.22,0.494,0.491,0.494h2.221
	l-0.351,0.452c-0.816,1.049-1.613,2.263-1.614,4.513l0,4.199c0,0.788,0.333,1.496,0.862,1.999v1.809C3.11,26.558,3.55,27,4.092,27
	h2.947c0.542,0,0.982-0.442,0.982-0.988v-1.153h15.958v1.153c0,0.546,0.44,0.988,0.982,0.988h2.947c0.542,0,0.982-0.442,0.982-0.988
	v-1.819c0.528-0.5,0.862-1.202,0.862-1.989l0-4.203c-0.001-2.242-0.791-3.447-1.6-4.491l-0.366-0.47h2.222
	c0.271,0,0.491-0.221,0.491-0.494V11.56C30.5,11.287,30.28,11.065,30.009,11.065z M6.432,12.379l2.744-5.353
	C9.45,6.5,9.711,6.304,10.142,6.304h11.718c0.43,0,0.692,0.196,0.964,0.721l2.744,5.352c0.091,0.18,0.1,0.386,0.022,0.513
	c-0.062,0.101-0.184,0.152-0.365,0.152H6.776c-0.181,0-0.303-0.051-0.365-0.152C6.333,12.763,6.343,12.556,6.432,12.379z
	 M4.687,23.386c-0.599,0-1.085-0.489-1.085-1.091s0.487-1.091,1.085-1.091c0.598,0,1.085,0.489,1.085,1.091
	S5.285,23.386,4.687,23.386z M10.93,17.964c0,0.272-0.22,0.494-0.491,0.494H3.956c-0.271,0-0.491-0.222-0.491-0.494v-1.411
	c0-0.272,0.22-0.494,0.417-0.5l6.557,0.994c0.271,0,0.491,0.222,0.491,0.494V17.964z M18.771,23.386h-5.54
	c-0.353,0-0.639-0.288-0.639-0.642c0-0.354,0.287-0.641,0.638-0.641h5.541c0.352,0,0.638,0.287,0.638,0.641
	S19.122,23.386,18.771,23.386z M27.313,23.386c-0.598,0-1.085-0.489-1.085-1.091s0.487-1.091,1.085-1.091
	c0.599,0,1.085,0.489,1.085,1.091S27.912,23.386,27.313,23.386z M28.044,16.059c0.271,0,0.491,0.222,0.491,0.494v1.411
	c0,0.272-0.22,0.494-0.491,0.494h-6.483c-0.271,0-0.491-0.222-0.491-0.494v-0.423c0-0.272,0.22-0.494,0.564-0.5L28.044,16.059z"/>
</svg>
