<?xml version="1.0" encoding="utf-8"?>
<!-- Generator: Adobe Illustrator 16.0.0, SVG Export Plug-In . SVG Version: 6.00 Build 0)  -->
<!DOCTYPE svg PUBLIC "-//W3C//DTD SVG 1.1//EN" "http://www.w3.org/Graphics/SVG/1.1/DTD/svg11.dtd">
<svg version="1.1" id="Capa_1" xmlns="http://www.w3.org/2000/svg" xmlns:xlink="http://www.w3.org/1999/xlink" x="0px" y="0px"
	 width="32px" height="32px" viewBox="0 0 32 32" enable-background="new 0 0 32 32" xml:space="preserve">
<g>
	<path fill="#FFFFFF" d="M16.518,15.482H30.5V4.607c0-1.714-1.394-3.107-3.107-3.107H16.518V15.482z M26.357,8.232v2.071h-7.25
		V8.232H26.357z"/>
	<path fill="#FFFFFF" d="M15.482,15.482V1.5H4.607C2.894,1.5,1.5,2.894,1.5,4.607v10.875H15.482z M5.643,8.232h2.589v-2.59h2.072
		v2.59h2.589v2.071h-2.589v2.589H8.232v-2.589H5.643V8.232z"/>
	<path fill="#FFFFFF" d="M16.518,16.518V30.5h10.875c1.713,0,3.107-1.394,3.107-3.107V16.518H16.518z M26.357,25.839h-7.25v-2.071
		h7.25V25.839z M26.357,21.696h-7.25v-2.071h7.25V21.696z"/>
	<path fill="#FFFFFF" d="M15.482,16.518H1.5v10.875c0,1.714,1.394,3.107,3.107,3.107h10.875V16.518z M9.268,24.194l-1.832,1.831
		l-1.464-1.465l1.831-1.83l-1.83-1.829l1.464-1.465l1.831,1.829l1.83-1.829l1.465,1.465l-1.831,1.829l1.831,1.83l-1.464,1.465
		L9.268,24.194z"/>
</g>
</svg>
