<?xml version="1.0" encoding="utf-8"?>
<!-- Generator: Adobe Illustrator 16.0.0, SVG Export Plug-In . SVG Version: 6.00 Build 0)  -->
<!DOCTYPE svg PUBLIC "-//W3C//DTD SVG 1.1//EN" "http://www.w3.org/Graphics/SVG/1.1/DTD/svg11.dtd">
<svg version="1.1" id="Capa_1" xmlns="http://www.w3.org/2000/svg" xmlns:xlink="http://www.w3.org/1999/xlink" x="0px" y="0px"
	 width="32px" height="32px" viewBox="0 0 32 32" enable-background="new 0 0 32 32" xml:space="preserve">
<path fill="#FFFFFF" d="M16,2C8.279,2,2,8.28,2,16C2,23.72,8.279,30,16,30S30,23.72,30,16C30,8.28,23.721,2,16,2z M19.506,22.583
	c-0.539,0.569-1.615,1.742-2.786,2.847c-1.588,1.498-3.386,1.408-4.254,1.048c-0.997-0.413-1.558-1.858-1.199-3.057
	c0.181-0.603,0.868-2.613,1.545-4.562c0.822-2.119,1.667-4.263,1.81-4.563c0.269-0.569-0.06-1.018-0.569-0.988
	c-0.51,0.03-2.277,1.917-2.727,2.397c-0.449,0.48-1.079-0.189-0.719-0.569c0.539-0.569,1.615-1.742,2.786-2.846
	c1.588-1.498,3.386-1.408,4.254-1.049c0.998,0.413,1.559,1.857,1.199,3.056c-0.181,0.604-0.867,2.614-1.545,4.563
	c-0.821,2.119-1.667,4.263-1.809,4.562c-0.27,0.57,0.06,1.019,0.569,0.989c0.51-0.03,2.277-1.917,2.726-2.397
	C19.237,21.535,19.867,22.202,19.506,22.583z M19.026,10.249c-1.368,0-2.475-1.108-2.475-2.475c0-1.366,1.107-2.474,2.475-2.474
	c1.366,0,2.474,1.108,2.474,2.474C21.5,9.141,20.392,10.249,19.026,10.249z"/>
</svg>
