<?xml version="1.0" encoding="utf-8"?>
<!-- Generator: Adobe Illustrator 16.0.0, SVG Export Plug-In . SVG Version: 6.00 Build 0)  -->
<!DOCTYPE svg PUBLIC "-//W3C//DTD SVG 1.1//EN" "http://www.w3.org/Graphics/SVG/1.1/DTD/svg11.dtd">
<svg version="1.1" id="Capa_1" xmlns="http://www.w3.org/2000/svg" xmlns:xlink="http://www.w3.org/1999/xlink" x="0px" y="0px"
	 width="32px" height="32px" viewBox="0 0 32 32" enable-background="new 0 0 32 32" xml:space="preserve">
<g>
	<rect x="3.76" y="3.75" fill="#FFFFFF" width="24.49" height="2.043"/>
	<rect x="3.76" y="13.351" fill="#FFFFFF" width="24.49" height="2.042"/>
	<rect x="16.547" y="22.949" fill="#FFFFFF" width="11.703" height="2.042"/>
	<path fill="#FFFFFF" d="M12.926,21.244H9.796l-0.966-3.035c-0.068-0.211-0.264-0.355-0.486-0.355c-0.222,0-0.418,0.144-0.486,0.355
		L6.89,21.244H3.76c-0.22,0-0.416,0.142-0.485,0.351c-0.069,0.21,0.004,0.439,0.182,0.57l2.54,1.878l-0.972,3.042
		c-0.068,0.21,0.008,0.441,0.189,0.57c0.089,0.064,0.192,0.096,0.297,0.096c0.106,0,0.213-0.033,0.303-0.1l2.53-1.87l2.53,1.87
		c0.179,0.13,0.42,0.132,0.601,0.004c0.179-0.129,0.255-0.36,0.188-0.57l-0.972-3.042l2.538-1.878c0.177-0.13,0.25-0.36,0.181-0.57
		C13.341,21.385,13.146,21.244,12.926,21.244z"/>
</g>
</svg>
