<?xml version="1.0" encoding="utf-8"?>
<!-- Generator: Adobe Illustrator 16.0.0, SVG Export Plug-In . SVG Version: 6.00 Build 0)  -->
<!DOCTYPE svg PUBLIC "-//W3C//DTD SVG 1.1//EN" "http://www.w3.org/Graphics/SVG/1.1/DTD/svg11.dtd">
<svg version="1.1" id="Capa_1" xmlns="http://www.w3.org/2000/svg" xmlns:xlink="http://www.w3.org/1999/xlink" x="0px" y="0px"
	 width="32px" height="32px" viewBox="0 0 32 32" enable-background="new 0 0 32 32" xml:space="preserve">
<g>
	<path fill="#FFFFFF" d="M16,11.834c-3.199,0-5.8,2.616-5.8,5.833c0,3.216,2.602,5.835,5.8,5.835c3.198,0,5.8-2.619,5.8-5.835
		C21.8,14.45,19.198,11.834,16,11.834z"/>
	<path fill="#FFFFFF" d="M27.729,7.335h-4.899C22.387,5.427,20.691,4,18.662,4h-5.324c-2.03,0-3.725,1.427-4.165,3.335H4.271
		c-1.527,0-2.771,1.252-2.771,2.789v15.087C1.5,26.748,2.744,28,4.271,28h23.457c1.529,0,2.771-1.252,2.771-2.789V10.124
		C30.5,8.587,29.258,7.335,27.729,7.335z M16,25.447c-4.263,0-7.733-3.489-7.733-7.78S11.737,9.89,16,9.89
		c4.265,0,7.733,3.486,7.733,7.777S20.265,25.447,16,25.447z M26.15,13.584c-0.748,0-1.354-0.61-1.354-1.361
		c0-0.752,0.606-1.361,1.354-1.361c0.748,0,1.353,0.609,1.353,1.361C27.503,12.974,26.898,13.584,26.15,13.584z"/>
</g>
</svg>
