<?xml version="1.0" encoding="utf-8"?>
<!-- Generator: Adobe Illustrator 16.0.0, SVG Export Plug-In . SVG Version: 6.00 Build 0)  -->
<!DOCTYPE svg PUBLIC "-//W3C//DTD SVG 1.1//EN" "http://www.w3.org/Graphics/SVG/1.1/DTD/svg11.dtd">
<svg version="1.1" id="Capa_1" xmlns="http://www.w3.org/2000/svg" xmlns:xlink="http://www.w3.org/1999/xlink" x="0px" y="0px"
	 width="32px" height="32px" viewBox="0 0 32 32" enable-background="new 0 0 32 32" xml:space="preserve">
<g>
	<path fill="#FFFFFF" d="M20.648,11.375c-1.17,0-2.12-0.952-2.12-2.123V1.5h-4.755H7.962H6.681C4.927,1.5,3.5,2.925,3.5,4.683
		v22.635c0,1.758,1.427,3.183,3.181,3.183h18.638c1.754,0,3.181-1.425,3.181-3.183V11.375H20.648z M22.97,20.113l-6.22,6.225
		c-0.098,0.097-0.215,0.174-0.345,0.229c-0.13,0.054-0.267,0.083-0.405,0.083s-0.275-0.029-0.406-0.083
		c-0.129-0.055-0.247-0.132-0.345-0.229L9.03,20.113c-0.415-0.414-0.415-1.085,0-1.5c0.414-0.414,1.084-0.414,1.499,0l4.409,4.413
		v-9.562c0-0.585,0.475-1.06,1.061-1.06s1.06,0.475,1.06,1.06v9.562l4.412-4.413c0.414-0.414,1.085-0.414,1.499,0
		C23.384,19.028,23.384,19.699,22.97,20.113z"/>
	<polygon fill="#FFFFFF" points="20.648,2.561 20.648,9.252 27.439,9.252 	"/>
</g>
</svg>
