<?xml version="1.0" encoding="utf-8"?>
<!-- Generator: Adobe Illustrator 16.0.0, SVG Export Plug-In . SVG Version: 6.00 Build 0)  -->
<!DOCTYPE svg PUBLIC "-//W3C//DTD SVG 1.1//EN" "http://www.w3.org/Graphics/SVG/1.1/DTD/svg11.dtd">
<svg version="1.1" id="Capa_1" xmlns="http://www.w3.org/2000/svg" xmlns:xlink="http://www.w3.org/1999/xlink" x="0px" y="0px"
	 width="70px" height="70px" viewBox="0 0 70 70" enable-background="new 0 0 70 70" xml:space="preserve">
<path fill="#474542" d="M65.588,19.449h-5.256l-0.734-1.105c-0.079-0.118-0.213-0.188-0.354-0.188h-9.549
	c-0.141,0-0.271,0.069-0.35,0.188l-0.738,1.105H19.155l-0.735-1.105c-0.077-0.118-0.211-0.188-0.35-0.188H8.52
	c-0.143,0-0.273,0.069-0.352,0.188l-0.736,1.105h-3.93H1.346c-0.232,0-0.421,0.188-0.421,0.42v5.875v18.432v5.875
	c0,0.232,0.188,0.421,0.421,0.421h2.156h3.93l0.736,1.104c0.078,0.118,0.209,0.188,0.352,0.188h9.551c0.139,0,0.272-0.07,0.35-0.188
	l0.735-1.104h29.452l0.738,1.104c0.079,0.118,0.209,0.188,0.35,0.188h9.549c0.141,0,0.274-0.07,0.354-0.188l0.734-1.104h5.256
	c1.897,0,3.438-1.544,3.438-3.44v-5.01v-14.12v-5.014C69.025,20.991,67.485,19.449,65.588,19.449 M1.766,20.289h1.315v3.341
	c-0.004,0.017-0.006,0.034-0.006,0.052c-0.039,0.775-0.587,1.41-1.31,1.591V20.289z M3.081,49.629H1.766v-4.979
	c0.723,0.181,1.271,0.813,1.31,1.59c0,0.017,0.002,0.034,0.006,0.049V49.629z M3.924,42.972H3.081V26.948h0.843V42.972z
	 M47.383,20.289l-5.168,1.049H19.483l-3.158-1.049H47.383z M12.38,20.985l5.271,1.749v24.449l-5.271,1.752V20.985z M16.325,49.629
	l3.158-1.048l22.693-0.007l5.206,1.055H16.325z M52.494,48.864l-8.469-1.721V22.774l8.469-1.717V48.864z M65.165,20.324h0.845
	c1.229,0.201,2.175,1.275,2.175,2.563v4.592H66.01h-0.845V20.324z M68.185,47.031c0,1.29-0.946,2.364-2.175,2.565h-0.845v-7.153
	h0.845h2.175V47.031z M67.516,36.603v4.578h-0.841v-4.578c-0.266-0.085-0.498-0.246-0.665-0.461v5.039h-0.845V28.74h0.845v5.673
	c0.167-0.213,0.399-0.377,0.665-0.461V28.74h0.841v5.212c0.566,0.181,0.981,0.7,0.981,1.326
	C68.497,35.899,68.082,36.423,67.516,36.603"/>
</svg>
