<?xml version="1.0" encoding="utf-8"?>
<!-- Generator: Adobe Illustrator 17.0.0, SVG Export Plug-In . SVG Version: 6.00 Build 0)  -->
<!DOCTYPE svg PUBLIC "-//W3C//DTD SVG 1.1//EN" "http://www.w3.org/Graphics/SVG/1.1/DTD/svg11.dtd">
<svg version="1.1" id="Capa_1" xmlns="http://www.w3.org/2000/svg" xmlns:xlink="http://www.w3.org/1999/xlink" x="0px" y="0px"
	 width="38px" height="38px" viewBox="0 0 38 38" enable-background="new 0 0 38 38" xml:space="preserve">
<path fill="#E2A205" d="M36.616,30.974c-0.004-0.007-0.002-0.014-0.004-0.022L21.299,4.428c-0.005-0.006-0.013-0.007-0.017-0.015
	C20.84,3.607,19.984,3.06,19,3.06c-0.987,0-1.862,0.564-2.302,1.374L1.388,30.953c-0.002,0.007,0,0.015-0.004,0.022
	c-0.482,0.786-0.529,1.804-0.035,2.659c0.492,0.852,1.394,1.32,2.313,1.299c0.009,0,0.014,0.006,0.021,0.007h30.635
	c0.007-0.002,0.013-0.008,0.021-0.007c0.919,0.021,1.821-0.447,2.312-1.299C37.145,32.779,37.098,31.761,36.616,30.974z
	 M21.246,31.192h-4.491v-4.491h4.491V31.192z M21.246,23.39h-4.491v-9.832h4.491V23.39z"/>
</svg>
